<svg width="1280" height="204" viewBox="0 0 1280 204" fill="none" xmlns="http://www.w3.org/2000/svg">
<path d="M6.202 6.874C6.09 6.258 5.6 5.348 4.256 5.348C3.248 5.348 2.548 6.034 2.548 6.776C2.548 7.406 2.926 7.882 3.71 8.05L5.138 8.344C6.888 8.694 7.826 9.8 7.826 11.2C7.826 12.74 6.58 14.21 4.312 14.21C1.792 14.21 0.63 12.586 0.476 11.158L2.044 10.71C2.156 11.746 2.884 12.698 4.312 12.698C5.502 12.698 6.118 12.11 6.118 11.326C6.118 10.668 5.642 10.164 4.788 9.982L3.388 9.688C1.876 9.366 0.868 8.4 0.868 6.902C0.868 5.222 2.394 3.864 4.242 3.864C6.58 3.864 7.49 5.278 7.714 6.398L6.202 6.874ZM13.7995 13.244C13.4635 13.86 12.6655 14.196 11.8675 14.196C10.2435 14.196 9.29152 12.992 9.29152 11.48V7.182H10.9155V11.186C10.9155 12.026 11.3215 12.74 12.2875 12.74C13.2395 12.74 13.7155 12.11 13.7155 11.214V7.182H15.3395V12.754C15.3395 13.314 15.3675 13.734 15.4095 14H13.8555C13.8135 13.846 13.7995 13.524 13.7995 13.244ZM17.3596 16.66V7.182H18.9276V8.106C19.2636 7.504 20.0336 7.028 21.0976 7.028C23.1136 7.028 24.2476 8.568 24.2476 10.584C24.2476 12.628 23.0016 14.168 21.0416 14.168C20.0476 14.168 19.3196 13.748 18.9696 13.23V16.66H17.3596ZM22.6236 10.584C22.6236 9.296 21.8956 8.47 20.7896 8.47C19.7256 8.47 18.9556 9.31 18.9556 10.584C18.9556 11.886 19.7256 12.726 20.7896 12.726C21.8676 12.726 22.6236 11.886 22.6236 10.584ZM25.8498 16.66V7.182H27.4178V8.106C27.7538 7.504 28.5238 7.028 29.5878 7.028C31.6038 7.028 32.7378 8.568 32.7378 10.584C32.7378 12.628 31.4918 14.168 29.5318 14.168C28.5378 14.168 27.8098 13.748 27.4598 13.23V16.66H25.8498ZM31.1138 10.584C31.1138 9.296 30.3858 8.47 29.2798 8.47C28.2158 8.47 27.4458 9.31 27.4458 10.584C27.4458 11.886 28.2158 12.726 29.2798 12.726C30.3578 12.726 31.1138 11.886 31.1138 10.584ZM37.434 12.754C38.442 12.754 39.338 11.998 39.338 10.584C39.338 9.17 38.442 8.442 37.434 8.442C36.44 8.442 35.53 9.17 35.53 10.584C35.53 11.998 36.44 12.754 37.434 12.754ZM37.434 6.972C39.478 6.972 40.976 8.512 40.976 10.584C40.976 12.67 39.478 14.21 37.434 14.21C35.404 14.21 33.906 12.67 33.906 10.584C33.906 8.512 35.404 6.972 37.434 6.972ZM46.5468 8.792C46.3648 8.764 46.1828 8.75 46.0148 8.75C44.7408 8.75 44.1808 9.464 44.1808 10.752V14H42.5568V7.182H44.1388V8.274C44.4608 7.532 45.2168 7.098 46.1128 7.098C46.3228 7.098 46.4768 7.126 46.5468 7.14V8.792ZM49.9762 7.182H51.3902V8.624H49.9762V11.788C49.9762 12.39 50.2422 12.642 50.8442 12.642C51.0682 12.642 51.3342 12.6 51.4042 12.586V13.93C51.3062 13.972 51.0122 14.084 50.4102 14.084C49.1362 14.084 48.3662 13.342 48.3662 12.054V8.624H47.1062V7.182H47.4562C48.1842 7.182 48.5062 6.72 48.5062 6.118V5.096H49.9762V7.182Z" fill="#222222"/>
<path d="M7.854 45V40.492H2.548V45H1.372V35.074H2.548V39.414H7.854V35.074H9.03V45H7.854ZM16.0639 40.996C16.0219 39.932 15.3639 39.092 14.0759 39.092C12.8999 39.092 12.1299 40.002 12.0599 40.996H16.0639ZM17.1839 43.096C16.8059 44.258 15.7559 45.196 14.2019 45.196C12.4099 45.196 10.8839 43.88 10.8839 41.626C10.8839 39.498 12.3679 38.098 14.0619 38.098C16.0919 38.098 17.2259 39.498 17.2259 41.556C17.2259 41.71 17.2119 41.85 17.1979 41.948H12.0319V42.004C12.0319 43.278 12.9979 44.188 14.2019 44.188C15.3359 44.188 15.9519 43.544 16.2179 42.746L17.1839 43.096ZM18.9201 45V34.878H20.0401V45H18.9201ZM22.2287 47.66V38.294H23.3207V39.414C23.6707 38.728 24.4547 38.098 25.6447 38.098C27.6187 38.098 28.6967 39.638 28.6967 41.64C28.6967 43.642 27.5487 45.196 25.6167 45.196C24.4547 45.196 23.6987 44.594 23.3487 43.964V47.66H22.2287ZM25.4487 44.188C26.7367 44.188 27.5767 43.138 27.5767 41.64C27.5767 40.156 26.7507 39.106 25.4487 39.106C24.1467 39.106 23.3207 40.156 23.3207 41.64C23.3207 43.138 24.1607 44.188 25.4487 44.188ZM36.8562 39.106C35.6802 39.106 34.6582 40.016 34.6582 41.64C34.6582 43.25 35.6802 44.188 36.8702 44.188C38.1162 44.188 38.6902 43.292 38.8722 42.676L39.8522 43.11C39.5162 44.104 38.5922 45.196 36.8702 45.196C34.9382 45.196 33.5382 43.698 33.5382 41.64C33.5382 39.554 34.9662 38.098 36.8562 38.098C38.6062 38.098 39.4882 39.148 39.7962 40.212L38.7882 40.646C38.6062 39.932 38.0602 39.106 36.8562 39.106ZM46.1694 40.996C46.1274 39.932 45.4694 39.092 44.1814 39.092C43.0054 39.092 42.2354 40.002 42.1654 40.996H46.1694ZM47.2894 43.096C46.9114 44.258 45.8614 45.196 44.3074 45.196C42.5154 45.196 40.9894 43.88 40.9894 41.626C40.9894 39.498 42.4734 38.098 44.1674 38.098C46.1974 38.098 47.3314 39.498 47.3314 41.556C47.3314 41.71 47.3174 41.85 47.3034 41.948H42.1374V42.004C42.1374 43.278 43.1034 44.188 44.3074 44.188C45.4414 44.188 46.0574 43.544 46.3234 42.746L47.2894 43.096ZM50.1456 45H49.0256V38.294H50.1176V39.302C50.5516 38.518 51.3216 38.098 52.2176 38.098C53.8276 38.098 54.6116 39.246 54.6116 40.702V45H53.4916V40.87C53.4916 39.904 53.0436 39.106 51.8256 39.106C50.7476 39.106 50.1456 39.988 50.1456 41.052V45ZM58.2648 38.294H59.8468V39.302H58.2648V43.012C58.2648 43.726 58.5728 44.062 59.2868 44.062C59.4968 44.062 59.7348 44.034 59.8468 43.992V44.944C59.7208 44.986 59.3988 45.07 58.9648 45.07C57.8448 45.07 57.1448 44.398 57.1448 43.166V39.302H55.8008V38.294H56.2348C56.9208 38.294 57.2148 37.902 57.2148 37.272V36.166H58.2648V38.294ZM64.983 39.442C64.801 39.386 64.605 39.372 64.395 39.372C63.275 39.372 62.505 40.016 62.505 41.528V45H61.385V38.294H62.477V39.498C62.925 38.518 63.765 38.196 64.507 38.196C64.689 38.196 64.885 38.21 64.983 38.252V39.442ZM70.8745 40.996C70.8325 39.932 70.1745 39.092 68.8865 39.092C67.7105 39.092 66.9405 40.002 66.8705 40.996H70.8745ZM71.9945 43.096C71.6165 44.258 70.5665 45.196 69.0125 45.196C67.2205 45.196 65.6945 43.88 65.6945 41.626C65.6945 39.498 67.1785 38.098 68.8725 38.098C70.9025 38.098 72.0365 39.498 72.0365 41.556C72.0365 41.71 72.0225 41.85 72.0085 41.948H66.8425V42.004C66.8425 43.278 67.8085 44.188 69.0125 44.188C70.1465 44.188 70.7625 43.544 71.0285 42.746L71.9945 43.096Z" fill="#222222"/>
<path d="M7.21 73.102H2.66L1.554 76H0.28L4.256 66.074H5.628L9.618 76H8.344L7.21 73.102ZM3.08 72.024H6.79L4.928 67.278L3.08 72.024ZM10.9768 76V69.294H12.0968V76H10.9768ZM10.6968 66.648C10.6968 66.186 11.0748 65.808 11.5368 65.808C11.9988 65.808 12.3768 66.186 12.3768 66.648C12.3768 67.11 11.9988 67.488 11.5368 67.488C11.0748 67.488 10.6968 67.11 10.6968 66.648ZM17.8834 70.442C17.7014 70.386 17.5054 70.372 17.2954 70.372C16.1754 70.372 15.4054 71.016 15.4054 72.528V76H14.2854V69.294H15.3774V70.498C15.8254 69.518 16.6654 69.196 17.4074 69.196C17.5894 69.196 17.7854 69.21 17.8834 69.252V70.442ZM23.7012 76.196C21.1812 76.196 18.8152 74.334 18.8152 71.03C18.8152 67.712 21.2512 65.878 23.7012 65.878C25.9412 65.878 27.5512 67.124 28.0412 69.028L26.9492 69.406C26.5712 67.838 25.3952 66.956 23.7012 66.956C21.8112 66.956 19.9912 68.342 19.9912 71.03C19.9912 73.732 21.8112 75.118 23.7012 75.118C25.4652 75.118 26.6132 74.04 27.0192 72.626L28.0552 73.004C27.5372 74.866 25.9832 76.196 23.7012 76.196ZM32.5505 69.098C34.4965 69.098 35.9105 70.582 35.9105 72.64C35.9105 74.712 34.4965 76.196 32.5505 76.196C30.6045 76.196 29.1905 74.712 29.1905 72.64C29.1905 70.582 30.6045 69.098 32.5505 69.098ZM32.5505 70.106C31.3605 70.106 30.3105 71.016 30.3105 72.64C30.3105 74.278 31.3605 75.188 32.5505 75.188C33.7405 75.188 34.7905 74.278 34.7905 72.64C34.7905 71.016 33.7405 70.106 32.5505 70.106ZM40.4845 76H39.3505L36.6485 69.294H37.9085L39.9245 74.698L41.9545 69.294H43.1585L40.4845 76ZM49.0815 71.996C49.0395 70.932 48.3815 70.092 47.0935 70.092C45.9175 70.092 45.1475 71.002 45.0775 71.996H49.0815ZM50.2015 74.096C49.8235 75.258 48.7735 76.196 47.2195 76.196C45.4275 76.196 43.9015 74.88 43.9015 72.626C43.9015 70.498 45.3855 69.098 47.0795 69.098C49.1095 69.098 50.2435 70.498 50.2435 72.556C50.2435 72.71 50.2295 72.85 50.2155 72.948H45.0495V73.004C45.0495 74.278 46.0155 75.188 47.2195 75.188C48.3535 75.188 48.9695 74.544 49.2355 73.746L50.2015 74.096ZM55.5357 70.442C55.3537 70.386 55.1577 70.372 54.9477 70.372C53.8277 70.372 53.0577 71.016 53.0577 72.528V76H51.9377V69.294H53.0297V70.498C53.4777 69.518 54.3177 69.196 55.0597 69.196C55.2417 69.196 55.4377 69.21 55.5357 69.252V70.442Z" fill="#222222"/>
<path d="M7.21 104.102H2.66L1.554 107H0.28L4.256 97.074H5.628L9.618 107H8.344L7.21 104.102ZM3.08 103.024H6.79L4.928 98.278L3.08 103.024ZM12.0968 107H10.9768V100.294H12.0688V101.302C12.5028 100.518 13.2728 100.098 14.1688 100.098C15.7788 100.098 16.5628 101.246 16.5628 102.702V107H15.4428V102.87C15.4428 101.904 14.9948 101.106 13.7768 101.106C12.6988 101.106 12.0968 101.988 12.0968 103.052V107ZM20.216 100.294H21.798V101.302H20.216V105.012C20.216 105.726 20.524 106.062 21.238 106.062C21.448 106.062 21.686 106.034 21.798 105.992V106.944C21.672 106.986 21.35 107.07 20.916 107.07C19.796 107.07 19.096 106.398 19.096 105.166V101.302H17.752V100.294H18.186C18.872 100.294 19.166 99.902 19.166 99.272V98.166H20.216V100.294ZM23.3361 107V100.294H24.4561V107H23.3361ZM23.0561 97.648C23.0561 97.186 23.4341 96.808 23.8961 96.808C24.3581 96.808 24.7361 97.186 24.7361 97.648C24.7361 98.11 24.3581 98.488 23.8961 98.488C23.4341 98.488 23.0561 98.11 23.0561 97.648ZM26.5047 103.472V102.492H30.2427V103.472H26.5047ZM37.1492 105.852C36.8552 106.51 36.0992 107.196 34.9512 107.196C33.0192 107.196 31.8432 105.628 31.8432 103.64C31.8432 101.694 33.0892 100.098 34.9512 100.098C36.2392 100.098 36.8972 100.812 37.1212 101.372V96.878H38.2412V105.74C38.2412 106.412 38.2692 106.846 38.3112 107H37.2192C37.1772 106.846 37.1492 106.468 37.1492 106.034V105.852ZM35.0492 106.188C36.3092 106.188 37.1492 105.138 37.1492 103.64C37.1492 102.156 36.3372 101.106 35.0492 101.106C33.7752 101.106 32.9632 102.156 32.9632 103.64C32.9632 105.138 33.7752 106.188 35.0492 106.188ZM40.426 107V100.294H41.546V107H40.426ZM40.146 97.648C40.146 97.186 40.524 96.808 40.986 96.808C41.448 96.808 41.826 97.186 41.826 97.648C41.826 98.11 41.448 98.488 40.986 98.488C40.524 98.488 40.146 98.11 40.146 97.648ZM44.1966 104.886C44.2946 105.67 44.8686 106.244 45.8766 106.244C46.6746 106.244 47.1786 105.796 47.1786 105.222C47.1786 104.718 46.7726 104.396 46.1566 104.242L45.0646 103.99C44.0426 103.752 43.3986 103.094 43.3986 102.128C43.3986 101.008 44.4626 100.098 45.7366 100.098C47.4726 100.098 48.0746 101.204 48.2286 101.89L47.2346 102.254C47.1646 101.806 46.7866 101.05 45.7366 101.05C45.0226 101.05 44.4906 101.498 44.4906 102.058C44.4906 102.52 44.7846 102.828 45.3726 102.968L46.4646 103.22C47.6406 103.486 48.2846 104.158 48.2846 105.166C48.2846 106.132 47.4586 107.196 45.8626 107.196C44.0986 107.196 43.3006 106.076 43.1886 105.236L44.1966 104.886ZM52.866 101.106C51.69 101.106 50.668 102.016 50.668 103.64C50.668 105.25 51.69 106.188 52.88 106.188C54.126 106.188 54.7 105.292 54.882 104.676L55.862 105.11C55.526 106.104 54.602 107.196 52.88 107.196C50.948 107.196 49.548 105.698 49.548 103.64C49.548 101.554 50.976 100.098 52.866 100.098C54.616 100.098 55.498 101.148 55.806 102.212L54.798 102.646C54.616 101.932 54.07 101.106 52.866 101.106ZM61.0591 101.442C60.8771 101.386 60.6811 101.372 60.4711 101.372C59.3511 101.372 58.5811 102.016 58.5811 103.528V107H57.4611V100.294H58.5531V101.498C59.0011 100.518 59.8411 100.196 60.5831 100.196C60.7651 100.196 60.9611 100.21 61.0591 100.252V101.442ZM62.383 107V100.294H63.503V107H62.383ZM62.103 97.648C62.103 97.186 62.481 96.808 62.943 96.808C63.405 96.808 63.783 97.186 63.783 97.648C63.783 98.11 63.405 98.488 62.943 98.488C62.481 98.488 62.103 98.11 62.103 97.648ZM66.7836 101.246C67.1616 100.532 67.9596 100.098 68.8416 100.098C69.7796 100.098 70.5636 100.574 70.8996 101.47C71.3896 100.518 72.2156 100.098 73.1676 100.098C74.3856 100.098 75.4776 100.952 75.4776 102.618V107H74.3576V102.744C74.3576 101.82 73.8816 101.106 72.8176 101.106C71.8236 101.106 71.1516 101.918 71.1516 102.926V107H70.0316V102.744C70.0316 101.806 69.5416 101.106 68.4776 101.106C67.4696 101.106 66.8116 101.89 66.8116 102.94V107H65.6916V100.294H66.7836V101.246ZM77.5725 107V100.294H78.6925V107H77.5725ZM77.2925 97.648C77.2925 97.186 77.6705 96.808 78.1325 96.808C78.5945 96.808 78.9725 97.186 78.9725 97.648C78.9725 98.11 78.5945 98.488 78.1325 98.488C77.6705 98.488 77.2925 98.11 77.2925 97.648ZM82.0011 107H80.8811V100.294H81.9731V101.302C82.4071 100.518 83.1771 100.098 84.0731 100.098C85.6831 100.098 86.4671 101.246 86.4671 102.702V107H85.3471V102.87C85.3471 101.904 84.8991 101.106 83.6811 101.106C82.6031 101.106 82.0011 101.988 82.0011 103.052V107ZM88.0887 105.222C88.0887 104.046 88.9147 103.388 90.0907 103.22L91.8967 102.954C92.3867 102.884 92.4987 102.674 92.4987 102.38C92.4987 101.61 92.0087 101.05 90.9447 101.05C89.9507 101.05 89.3767 101.638 89.2787 102.492L88.2147 102.24C88.3687 100.966 89.4607 100.098 90.9167 100.098C92.8207 100.098 93.6187 101.19 93.6187 102.492V105.88C93.6187 106.44 93.6607 106.79 93.7027 107H92.6107C92.5687 106.846 92.5267 106.51 92.5267 105.992C92.2327 106.538 91.5047 107.196 90.3007 107.196C88.9147 107.196 88.0887 106.23 88.0887 105.222ZM90.4407 106.244C91.6027 106.244 92.4987 105.586 92.4987 104.172V103.724L90.3147 104.046C89.6567 104.144 89.2087 104.508 89.2087 105.166C89.2087 105.712 89.6707 106.244 90.4407 106.244ZM97.298 100.294H98.88V101.302H97.298V105.012C97.298 105.726 97.606 106.062 98.32 106.062C98.53 106.062 98.768 106.034 98.88 105.992V106.944C98.754 106.986 98.432 107.07 97.998 107.07C96.878 107.07 96.178 106.398 96.178 105.166V101.302H94.834V100.294H95.268C95.954 100.294 96.248 99.902 96.248 99.272V98.166H97.298V100.294ZM100.418 107V100.294H101.538V107H100.418ZM100.138 97.648C100.138 97.186 100.516 96.808 100.978 96.808C101.44 96.808 101.818 97.186 101.818 97.648C101.818 98.11 101.44 98.488 100.978 98.488C100.516 98.488 100.138 98.11 100.138 97.648ZM106.625 100.098C108.571 100.098 109.985 101.582 109.985 103.64C109.985 105.712 108.571 107.196 106.625 107.196C104.679 107.196 103.265 105.712 103.265 103.64C103.265 101.582 104.679 100.098 106.625 100.098ZM106.625 101.106C105.435 101.106 104.385 102.016 104.385 103.64C104.385 105.278 105.435 106.188 106.625 106.188C107.815 106.188 108.865 105.278 108.865 103.64C108.865 102.016 107.815 101.106 106.625 101.106ZM112.831 107H111.711V100.294H112.803V101.302C113.237 100.518 114.007 100.098 114.903 100.098C116.513 100.098 117.297 101.246 117.297 102.702V107H116.177V102.87C116.177 101.904 115.729 101.106 114.511 101.106C113.433 101.106 112.831 101.988 112.831 103.052V107Z" fill="#222222"/>
<path d="M4.634 136.964C6.566 136.964 8.204 135.662 8.204 133.058C8.204 130.44 6.608 129.11 4.662 129.11H2.548V136.964H4.634ZM1.372 138V128.074H4.662C7.182 128.074 9.38 129.81 9.38 133.058C9.38 136.306 7.154 138 4.634 138H1.372ZM11.0998 138V131.294H12.2198V138H11.0998ZM10.8198 128.648C10.8198 128.186 11.1978 127.808 11.6598 127.808C12.1218 127.808 12.4998 128.186 12.4998 128.648C12.4998 129.11 12.1218 129.488 11.6598 129.488C11.1978 129.488 10.8198 129.11 10.8198 128.648ZM14.8704 135.886C14.9684 136.67 15.5424 137.244 16.5504 137.244C17.3484 137.244 17.8524 136.796 17.8524 136.222C17.8524 135.718 17.4464 135.396 16.8304 135.242L15.7384 134.99C14.7164 134.752 14.0724 134.094 14.0724 133.128C14.0724 132.008 15.1364 131.098 16.4104 131.098C18.1464 131.098 18.7484 132.204 18.9024 132.89L17.9084 133.254C17.8384 132.806 17.4604 132.05 16.4104 132.05C15.6964 132.05 15.1644 132.498 15.1644 133.058C15.1644 133.52 15.4584 133.828 16.0464 133.968L17.1384 134.22C18.3144 134.486 18.9584 135.158 18.9584 136.166C18.9584 137.132 18.1324 138.196 16.5364 138.196C14.7724 138.196 13.9744 137.076 13.8624 136.236L14.8704 135.886ZM20.2078 136.222C20.2078 135.046 21.0338 134.388 22.2098 134.22L24.0158 133.954C24.5058 133.884 24.6178 133.674 24.6178 133.38C24.6178 132.61 24.1278 132.05 23.0638 132.05C22.0698 132.05 21.4958 132.638 21.3978 133.492L20.3338 133.24C20.4878 131.966 21.5798 131.098 23.0358 131.098C24.9398 131.098 25.7378 132.19 25.7378 133.492V136.88C25.7378 137.44 25.7798 137.79 25.8218 138H24.7298C24.6878 137.846 24.6458 137.51 24.6458 136.992C24.3518 137.538 23.6238 138.196 22.4198 138.196C21.0338 138.196 20.2078 137.23 20.2078 136.222ZM22.5598 137.244C23.7218 137.244 24.6178 136.586 24.6178 135.172V134.724L22.4338 135.046C21.7758 135.144 21.3278 135.508 21.3278 136.166C21.3278 136.712 21.7898 137.244 22.5598 137.244ZM27.8479 138V127.878H28.9679V132.386C29.2619 131.756 30.0739 131.098 31.2639 131.098C33.2519 131.098 34.3159 132.68 34.3159 134.64C34.3159 136.642 33.1819 138.196 31.2359 138.196C30.1159 138.196 29.3319 137.622 28.9399 136.894V138H27.8479ZM31.0679 137.188C32.3559 137.188 33.1959 136.138 33.1959 134.64C33.1959 133.156 32.3699 132.106 31.0679 132.106C29.7659 132.106 28.9399 133.156 28.9399 134.64C28.9399 136.138 29.7799 137.188 31.0679 137.188ZM36.051 138V131.294H37.171V138H36.051ZM35.771 128.648C35.771 128.186 36.149 127.808 36.611 127.808C37.073 127.808 37.451 128.186 37.451 128.648C37.451 129.11 37.073 129.488 36.611 129.488C36.149 129.488 35.771 129.11 35.771 128.648ZM39.3596 138V127.878H40.4796V138H39.3596ZM42.6682 138V131.294H43.7882V138H42.6682ZM42.3882 128.648C42.3882 128.186 42.7662 127.808 43.2282 127.808C43.6902 127.808 44.0682 128.186 44.0682 128.648C44.0682 129.11 43.6902 129.488 43.2282 129.488C42.7662 129.488 42.3882 129.11 42.3882 128.648ZM47.6008 131.294H49.1828V132.302H47.6008V136.012C47.6008 136.726 47.9088 137.062 48.6228 137.062C48.8328 137.062 49.0708 137.034 49.1828 136.992V137.944C49.0568 137.986 48.7348 138.07 48.3008 138.07C47.1808 138.07 46.4808 137.398 46.4808 136.166V132.302H45.1368V131.294H45.5708C46.2568 131.294 46.5508 130.902 46.5508 130.272V129.166H47.6008V131.294ZM51.1829 140.66L52.8069 137.202L49.9229 131.294H51.2109L53.4229 136.04L55.5089 131.294H56.7269L52.4289 140.66H51.1829ZM61.7239 135.886C61.8219 136.67 62.3959 137.244 63.4039 137.244C64.2019 137.244 64.7059 136.796 64.7059 136.222C64.7059 135.718 64.2999 135.396 63.6839 135.242L62.5919 134.99C61.5699 134.752 60.9259 134.094 60.9259 133.128C60.9259 132.008 61.9899 131.098 63.2639 131.098C64.9999 131.098 65.6019 132.204 65.7559 132.89L64.7619 133.254C64.6919 132.806 64.3139 132.05 63.2639 132.05C62.5499 132.05 62.0179 132.498 62.0179 133.058C62.0179 133.52 62.3119 133.828 62.8999 133.968L63.9919 134.22C65.1679 134.486 65.8119 135.158 65.8119 136.166C65.8119 137.132 64.9859 138.196 63.3899 138.196C61.6259 138.196 60.8279 137.076 60.7159 136.236L61.7239 135.886ZM71.9893 137.09C71.6673 137.776 70.8693 138.196 69.9733 138.196C68.3493 138.196 67.4533 137.006 67.4533 135.508V131.294H68.5733V135.326C68.5733 136.292 69.0353 137.188 70.2253 137.188C71.3453 137.188 71.9333 136.404 71.9333 135.34V131.294H73.0533V136.74C73.0533 137.258 73.0953 137.734 73.1373 138H72.0593C72.0173 137.846 71.9893 137.482 71.9893 137.146V137.09ZM75.2346 140.66V131.294H76.3266V132.414C76.6766 131.728 77.4606 131.098 78.6506 131.098C80.6246 131.098 81.7026 132.638 81.7026 134.64C81.7026 136.642 80.5546 138.196 78.6226 138.196C77.4606 138.196 76.7046 137.594 76.3546 136.964V140.66H75.2346ZM78.4546 137.188C79.7426 137.188 80.5826 136.138 80.5826 134.64C80.5826 133.156 79.7566 132.106 78.4546 132.106C77.1526 132.106 76.3266 133.156 76.3266 134.64C76.3266 136.138 77.1666 137.188 78.4546 137.188ZM83.4377 140.66V131.294H84.5297V132.414C84.8797 131.728 85.6637 131.098 86.8537 131.098C88.8277 131.098 89.9057 132.638 89.9057 134.64C89.9057 136.642 88.7577 138.196 86.8257 138.196C85.6637 138.196 84.9077 137.594 84.5577 136.964V140.66H83.4377ZM86.6577 137.188C87.9457 137.188 88.7857 136.138 88.7857 134.64C88.7857 133.156 87.9597 132.106 86.6577 132.106C85.3557 132.106 84.5297 133.156 84.5297 134.64C84.5297 136.138 85.3697 137.188 86.6577 137.188ZM94.5388 131.098C96.4848 131.098 97.8988 132.582 97.8988 134.64C97.8988 136.712 96.4848 138.196 94.5388 138.196C92.5928 138.196 91.1788 136.712 91.1788 134.64C91.1788 132.582 92.5928 131.098 94.5388 131.098ZM94.5388 132.106C93.3488 132.106 92.2988 133.016 92.2988 134.64C92.2988 136.278 93.3488 137.188 94.5388 137.188C95.7288 137.188 96.7788 136.278 96.7788 134.64C96.7788 133.016 95.7288 132.106 94.5388 132.106ZM103.223 132.442C103.041 132.386 102.845 132.372 102.635 132.372C101.515 132.372 100.745 133.016 100.745 134.528V138H99.6252V131.294H100.717V132.498C101.165 131.518 102.005 131.196 102.747 131.196C102.929 131.196 103.125 131.21 103.223 131.252V132.442ZM106.171 131.294H107.753V132.302H106.171V136.012C106.171 136.726 106.479 137.062 107.193 137.062C107.403 137.062 107.641 137.034 107.753 136.992V137.944C107.627 137.986 107.305 138.07 106.871 138.07C105.751 138.07 105.051 137.398 105.051 136.166V132.302H103.707V131.294H104.141C104.827 131.294 105.121 130.902 105.121 130.272V129.166H106.171V131.294Z" fill="#222222"/>
<path d="M5.586 169.196C3.066 169.196 0.7 167.334 0.7 164.03C0.7 160.712 3.136 158.878 5.586 158.878C7.826 158.878 9.436 160.124 9.926 162.028L8.834 162.406C8.456 160.838 7.28 159.956 5.586 159.956C3.696 159.956 1.876 161.342 1.876 164.03C1.876 166.732 3.696 168.118 5.586 168.118C7.35 168.118 8.498 167.04 8.904 165.626L9.94 166.004C9.422 167.866 7.868 169.196 5.586 169.196ZM11.0613 167.222C11.0613 166.046 11.8873 165.388 13.0633 165.22L14.8693 164.954C15.3593 164.884 15.4713 164.674 15.4713 164.38C15.4713 163.61 14.9813 163.05 13.9173 163.05C12.9233 163.05 12.3493 163.638 12.2513 164.492L11.1873 164.24C11.3413 162.966 12.4333 162.098 13.8893 162.098C15.7933 162.098 16.5913 163.19 16.5913 164.492V167.88C16.5913 168.44 16.6333 168.79 16.6753 169H15.5833C15.5413 168.846 15.4993 168.51 15.4993 167.992C15.2053 168.538 14.4773 169.196 13.2733 169.196C11.8873 169.196 11.0613 168.23 11.0613 167.222ZM13.4133 168.244C14.5753 168.244 15.4713 167.586 15.4713 166.172V165.724L13.2873 166.046C12.6293 166.144 12.1813 166.508 12.1813 167.166C12.1813 167.712 12.6433 168.244 13.4133 168.244ZM19.8214 169H18.7014V162.294H19.7934V163.302C20.2274 162.518 20.9974 162.098 21.8934 162.098C23.5034 162.098 24.2874 163.246 24.2874 164.702V169H23.1674V164.87C23.1674 163.904 22.7194 163.106 21.5014 163.106C20.4234 163.106 19.8214 163.988 19.8214 165.052V169ZM29.241 163.106C28.065 163.106 27.043 164.016 27.043 165.64C27.043 167.25 28.065 168.188 29.255 168.188C30.501 168.188 31.075 167.292 31.257 166.676L32.237 167.11C31.901 168.104 30.977 169.196 29.255 169.196C27.323 169.196 25.923 167.698 25.923 165.64C25.923 163.554 27.351 162.098 29.241 162.098C30.991 162.098 31.873 163.148 32.181 164.212L31.173 164.646C30.991 163.932 30.445 163.106 29.241 163.106ZM38.5541 164.996C38.5121 163.932 37.8541 163.092 36.5661 163.092C35.3901 163.092 34.6201 164.002 34.5501 164.996H38.5541ZM39.6741 167.096C39.2961 168.258 38.2461 169.196 36.6921 169.196C34.9001 169.196 33.3741 167.88 33.3741 165.626C33.3741 163.498 34.8581 162.098 36.5521 162.098C38.5821 162.098 39.7161 163.498 39.7161 165.556C39.7161 165.71 39.7021 165.85 39.6881 165.948H34.5221V166.004C34.5221 167.278 35.4881 168.188 36.6921 168.188C37.8261 168.188 38.4421 167.544 38.7081 166.746L39.6741 167.096ZM41.4104 169V158.878H42.5304V169H41.4104ZM44.719 169V158.878H45.839V169H44.719ZM47.5515 167.222C47.5515 166.046 48.3775 165.388 49.5535 165.22L51.3595 164.954C51.8495 164.884 51.9615 164.674 51.9615 164.38C51.9615 163.61 51.4715 163.05 50.4075 163.05C49.4135 163.05 48.8395 163.638 48.7415 164.492L47.6775 164.24C47.8315 162.966 48.9235 162.098 50.3795 162.098C52.2835 162.098 53.0815 163.19 53.0815 164.492V167.88C53.0815 168.44 53.1235 168.79 53.1655 169H52.0735C52.0315 168.846 51.9895 168.51 51.9895 167.992C51.6955 168.538 50.9675 169.196 49.7635 169.196C48.3775 169.196 47.5515 168.23 47.5515 167.222ZM49.9035 168.244C51.0655 168.244 51.9615 167.586 51.9615 166.172V165.724L49.7775 166.046C49.1195 166.144 48.6715 166.508 48.6715 167.166C48.6715 167.712 49.1335 168.244 49.9035 168.244ZM56.7609 162.294H58.3429V163.302H56.7609V167.012C56.7609 167.726 57.0689 168.062 57.7829 168.062C57.9929 168.062 58.2309 168.034 58.3429 167.992V168.944C58.2169 168.986 57.8949 169.07 57.4609 169.07C56.3409 169.07 55.6409 168.398 55.6409 167.166V163.302H54.2969V162.294H54.7309C55.4169 162.294 55.7109 161.902 55.7109 161.272V160.166H56.7609V162.294ZM59.8811 169V162.294H61.0011V169H59.8811ZM59.6011 159.648C59.6011 159.186 59.9791 158.808 60.4411 158.808C60.9031 158.808 61.2811 159.186 61.2811 159.648C61.2811 160.11 60.9031 160.488 60.4411 160.488C59.9791 160.488 59.6011 160.11 59.6011 159.648ZM66.0877 162.098C68.0337 162.098 69.4477 163.582 69.4477 165.64C69.4477 167.712 68.0337 169.196 66.0877 169.196C64.1417 169.196 62.7277 167.712 62.7277 165.64C62.7277 163.582 64.1417 162.098 66.0877 162.098ZM66.0877 163.106C64.8977 163.106 63.8477 164.016 63.8477 165.64C63.8477 167.278 64.8977 168.188 66.0877 168.188C67.2777 168.188 68.3277 167.278 68.3277 165.64C68.3277 164.016 67.2777 163.106 66.0877 163.106ZM72.294 169H71.174V162.294H72.266V163.302C72.7 162.518 73.47 162.098 74.366 162.098C75.976 162.098 76.76 163.246 76.76 164.702V169H75.64V164.87C75.64 163.904 75.192 163.106 73.974 163.106C72.896 163.106 72.294 163.988 72.294 165.052V169ZM85.324 162.098C87.27 162.098 88.684 163.582 88.684 165.64C88.684 167.712 87.27 169.196 85.324 169.196C83.378 169.196 81.964 167.712 81.964 165.64C81.964 163.582 83.378 162.098 85.324 162.098ZM85.324 163.106C84.134 163.106 83.084 164.016 83.084 165.64C83.084 167.278 84.134 168.188 85.324 168.188C86.514 168.188 87.564 167.278 87.564 165.64C87.564 164.016 86.514 163.106 85.324 163.106ZM90.4104 171.66V162.294H91.5024V163.414C91.8524 162.728 92.6364 162.098 93.8264 162.098C95.8004 162.098 96.8784 163.638 96.8784 165.64C96.8784 167.642 95.7304 169.196 93.7984 169.196C92.6364 169.196 91.8804 168.594 91.5304 167.964V171.66H90.4104ZM93.6304 168.188C94.9184 168.188 95.7584 167.138 95.7584 165.64C95.7584 164.156 94.9324 163.106 93.6304 163.106C92.3284 163.106 91.5024 164.156 91.5024 165.64C91.5024 167.138 92.3424 168.188 93.6304 168.188ZM100.128 162.294H101.71V163.302H100.128V167.012C100.128 167.726 100.436 168.062 101.15 168.062C101.36 168.062 101.598 168.034 101.71 167.992V168.944C101.584 168.986 101.262 169.07 100.828 169.07C99.7081 169.07 99.0081 168.398 99.0081 167.166V163.302H97.6641V162.294H98.0981C98.7841 162.294 99.0781 161.902 99.0781 161.272V160.166H100.128V162.294ZM103.248 169V162.294H104.368V169H103.248ZM102.968 159.648C102.968 159.186 103.346 158.808 103.808 158.808C104.27 158.808 104.648 159.186 104.648 159.648C104.648 160.11 104.27 160.488 103.808 160.488C103.346 160.488 102.968 160.11 102.968 159.648ZM109.455 162.098C111.401 162.098 112.815 163.582 112.815 165.64C112.815 167.712 111.401 169.196 109.455 169.196C107.509 169.196 106.095 167.712 106.095 165.64C106.095 163.582 107.509 162.098 109.455 162.098ZM109.455 163.106C108.265 163.106 107.215 164.016 107.215 165.64C107.215 167.278 108.265 168.188 109.455 168.188C110.645 168.188 111.695 167.278 111.695 165.64C111.695 164.016 110.645 163.106 109.455 163.106ZM115.661 169H114.541V162.294H115.633V163.302C116.067 162.518 116.837 162.098 117.733 162.098C119.343 162.098 120.127 163.246 120.127 164.702V169H119.007V164.87C119.007 163.904 118.559 163.106 117.341 163.106C116.263 163.106 115.661 163.988 115.661 165.052V169ZM122.687 166.886C122.785 167.67 123.359 168.244 124.367 168.244C125.165 168.244 125.669 167.796 125.669 167.222C125.669 166.718 125.263 166.396 124.647 166.242L123.555 165.99C122.533 165.752 121.889 165.094 121.889 164.128C121.889 163.008 122.953 162.098 124.227 162.098C125.963 162.098 126.565 163.204 126.719 163.89L125.725 164.254C125.655 163.806 125.277 163.05 124.227 163.05C123.513 163.05 122.981 163.498 122.981 164.058C122.981 164.52 123.275 164.828 123.863 164.968L124.955 165.22C126.131 165.486 126.775 166.158 126.775 167.166C126.775 168.132 125.949 169.196 124.353 169.196C122.589 169.196 121.791 168.076 121.679 167.236L122.687 166.886Z" fill="#222222"/>
<path d="M4.27 195.842H2.548V200H1.372V190.074H4.984C6.818 190.074 7.98 191.348 7.98 192.972C7.98 194.428 7.07 195.52 5.558 195.758L7.966 200H6.594L4.27 195.842ZM4.802 194.792C6.02 194.792 6.804 194.092 6.804 192.972C6.804 191.852 6.02 191.124 4.802 191.124H2.548V194.792H4.802ZM14.1362 195.996C14.0942 194.932 13.4362 194.092 12.1482 194.092C10.9722 194.092 10.2022 195.002 10.1322 195.996H14.1362ZM15.2562 198.096C14.8782 199.258 13.8282 200.196 12.2742 200.196C10.4822 200.196 8.95617 198.88 8.95617 196.626C8.95617 194.498 10.4402 193.098 12.1342 193.098C14.1642 193.098 15.2982 194.498 15.2982 196.556C15.2982 196.71 15.2842 196.85 15.2702 196.948H10.1042V197.004C10.1042 198.278 11.0702 199.188 12.2742 199.188C13.4082 199.188 14.0242 198.544 14.2902 197.746L15.2562 198.096ZM16.9924 202.66V193.294H18.0844V194.414C18.4344 193.728 19.2184 193.098 20.4084 193.098C22.3824 193.098 23.4604 194.638 23.4604 196.64C23.4604 198.642 22.3124 200.196 20.3804 200.196C19.2184 200.196 18.4624 199.594 18.1124 198.964V202.66H16.9924ZM20.2124 199.188C21.5004 199.188 22.3404 198.138 22.3404 196.64C22.3404 195.156 21.5144 194.106 20.2124 194.106C18.9104 194.106 18.0844 195.156 18.0844 196.64C18.0844 198.138 18.9244 199.188 20.2124 199.188ZM28.0935 193.098C30.0395 193.098 31.4535 194.582 31.4535 196.64C31.4535 198.712 30.0395 200.196 28.0935 200.196C26.1475 200.196 24.7335 198.712 24.7335 196.64C24.7335 194.582 26.1475 193.098 28.0935 193.098ZM28.0935 194.106C26.9035 194.106 25.8535 195.016 25.8535 196.64C25.8535 198.278 26.9035 199.188 28.0935 199.188C29.2835 199.188 30.3335 198.278 30.3335 196.64C30.3335 195.016 29.2835 194.106 28.0935 194.106ZM36.7779 194.442C36.5959 194.386 36.3999 194.372 36.1899 194.372C35.0699 194.372 34.2999 195.016 34.2999 196.528V200H33.1799V193.294H34.2719V194.498C34.7199 193.518 35.5599 193.196 36.3019 193.196C36.4839 193.196 36.6799 193.21 36.7779 193.252V194.442ZM39.7258 193.294H41.3078V194.302H39.7258V198.012C39.7258 198.726 40.0338 199.062 40.7478 199.062C40.9578 199.062 41.1958 199.034 41.3078 198.992V199.944C41.1818 199.986 40.8598 200.07 40.4258 200.07C39.3058 200.07 38.6058 199.398 38.6058 198.166V194.302H37.2618V193.294H37.6958C38.3818 193.294 38.6758 192.902 38.6758 192.272V191.166H39.7258V193.294ZM47.5343 200H46.4143V193.294H47.5063V194.302C47.9403 193.518 48.7103 193.098 49.6063 193.098C51.2163 193.098 52.0003 194.246 52.0003 195.702V200H50.8803V195.87C50.8803 194.904 50.4323 194.106 49.2143 194.106C48.1363 194.106 47.5343 194.988 47.5343 196.052V200ZM58.8159 195.996C58.7739 194.932 58.1159 194.092 56.8279 194.092C55.6519 194.092 54.8819 195.002 54.8119 195.996H58.8159ZM59.9359 198.096C59.5579 199.258 58.5079 200.196 56.9539 200.196C55.1619 200.196 53.6359 198.88 53.6359 196.626C53.6359 194.498 55.1199 193.098 56.8139 193.098C58.8439 193.098 59.9779 194.498 59.9779 196.556C59.9779 196.71 59.9639 196.85 59.9499 196.948H54.7839V197.004C54.7839 198.278 55.7499 199.188 56.9539 199.188C58.0879 199.188 58.7039 198.544 58.9699 197.746L59.9359 198.096ZM61.6721 200V193.294H62.7921V200H61.6721ZM61.3921 190.648C61.3921 190.186 61.7701 189.808 62.2321 189.808C62.6941 189.808 63.0721 190.186 63.0721 190.648C63.0721 191.11 62.6941 191.488 62.2321 191.488C61.7701 191.488 61.3921 191.11 61.3921 190.648ZM65.5967 200.112C65.7087 201.106 66.4367 201.848 67.5427 201.848C69.1107 201.848 69.6847 200.924 69.6847 199.538V198.46C69.3627 199.118 68.6627 199.706 67.5567 199.706C65.7787 199.706 64.5327 198.278 64.5327 196.416C64.5327 194.54 65.7647 193.098 67.5847 193.098C68.6487 193.098 69.3627 193.588 69.6987 194.246V193.294H70.8047V199.496C70.8047 201.134 70.0627 202.856 67.5427 202.856C65.9187 202.856 64.6727 201.792 64.5187 200.378L65.5967 200.112ZM69.7407 196.402C69.7407 195.002 68.9287 194.106 67.6967 194.106C66.4647 194.106 65.6527 195.002 65.6527 196.402C65.6527 197.802 66.4647 198.698 67.6967 198.698C68.9287 198.698 69.7407 197.802 69.7407 196.402ZM74.1124 200H72.9924V189.878H74.1124V194.19C74.5464 193.476 75.3024 193.098 76.1844 193.098C77.7944 193.098 78.5784 194.246 78.5784 195.702V200H77.4584V195.87C77.4584 194.904 77.0104 194.106 75.7924 194.106C74.7284 194.106 74.1124 194.946 74.1124 195.996V200ZM80.676 200V189.878H81.796V194.386C82.09 193.756 82.902 193.098 84.092 193.098C86.08 193.098 87.144 194.68 87.144 196.64C87.144 198.642 86.01 200.196 84.064 200.196C82.944 200.196 82.16 199.622 81.768 198.894V200H80.676ZM83.896 199.188C85.184 199.188 86.024 198.138 86.024 196.64C86.024 195.156 85.198 194.106 83.896 194.106C82.594 194.106 81.768 195.156 81.768 196.64C81.768 198.138 82.608 199.188 83.896 199.188ZM91.7771 193.098C93.7231 193.098 95.1371 194.582 95.1371 196.64C95.1371 198.712 93.7231 200.196 91.7771 200.196C89.8311 200.196 88.4171 198.712 88.4171 196.64C88.4171 194.582 89.8311 193.098 91.7771 193.098ZM91.7771 194.106C90.5871 194.106 89.5371 195.016 89.5371 196.64C89.5371 198.278 90.5871 199.188 91.7771 199.188C92.9671 199.188 94.0171 198.278 94.0171 196.64C94.0171 195.016 92.9671 194.106 91.7771 194.106ZM101.315 199.09C100.993 199.776 100.195 200.196 99.2995 200.196C97.6755 200.196 96.7795 199.006 96.7795 197.508V193.294H97.8995V197.326C97.8995 198.292 98.3615 199.188 99.5515 199.188C100.671 199.188 101.259 198.404 101.259 197.34V193.294H102.379V198.74C102.379 199.258 102.421 199.734 102.463 200H101.385C101.343 199.846 101.315 199.482 101.315 199.146V199.09ZM108.159 194.442C107.977 194.386 107.781 194.372 107.571 194.372C106.451 194.372 105.681 195.016 105.681 196.528V200H104.561V193.294H105.653V194.498C106.101 193.518 106.941 193.196 107.683 193.196C107.865 193.196 108.061 193.21 108.159 193.252V194.442ZM110.603 200H109.483V189.878H110.603V194.19C111.037 193.476 111.793 193.098 112.675 193.098C114.285 193.098 115.069 194.246 115.069 195.702V200H113.949V195.87C113.949 194.904 113.501 194.106 112.283 194.106C111.219 194.106 110.603 194.946 110.603 195.996V200ZM120.064 193.098C122.01 193.098 123.424 194.582 123.424 196.64C123.424 198.712 122.01 200.196 120.064 200.196C118.118 200.196 116.704 198.712 116.704 196.64C116.704 194.582 118.118 193.098 120.064 193.098ZM120.064 194.106C118.874 194.106 117.824 195.016 117.824 196.64C117.824 198.278 118.874 199.188 120.064 199.188C121.254 199.188 122.304 198.278 122.304 196.64C122.304 195.016 121.254 194.106 120.064 194.106ZM128.049 193.098C129.995 193.098 131.409 194.582 131.409 196.64C131.409 198.712 129.995 200.196 128.049 200.196C126.103 200.196 124.689 198.712 124.689 196.64C124.689 194.582 126.103 193.098 128.049 193.098ZM128.049 194.106C126.859 194.106 125.809 195.016 125.809 196.64C125.809 198.278 126.859 199.188 128.049 199.188C129.239 199.188 130.289 198.278 130.289 196.64C130.289 195.016 129.239 194.106 128.049 194.106ZM137.993 198.852C137.699 199.51 136.943 200.196 135.795 200.196C133.863 200.196 132.687 198.628 132.687 196.64C132.687 194.694 133.933 193.098 135.795 193.098C137.083 193.098 137.741 193.812 137.965 194.372V189.878H139.085V198.74C139.085 199.412 139.113 199.846 139.155 200H138.063C138.021 199.846 137.993 199.468 137.993 199.034V198.852ZM135.893 199.188C137.153 199.188 137.993 198.138 137.993 196.64C137.993 195.156 137.181 194.106 135.893 194.106C134.619 194.106 133.807 195.156 133.807 196.64C133.807 198.138 134.619 199.188 135.893 199.188ZM147.694 194.106C146.518 194.106 145.496 195.016 145.496 196.64C145.496 198.25 146.518 199.188 147.708 199.188C148.954 199.188 149.528 198.292 149.71 197.676L150.69 198.11C150.354 199.104 149.43 200.196 147.708 200.196C145.776 200.196 144.376 198.698 144.376 196.64C144.376 194.554 145.804 193.098 147.694 193.098C149.444 193.098 150.326 194.148 150.634 195.212L149.626 195.646C149.444 194.932 148.898 194.106 147.694 194.106ZM155.187 193.098C157.133 193.098 158.547 194.582 158.547 196.64C158.547 198.712 157.133 200.196 155.187 200.196C153.241 200.196 151.827 198.712 151.827 196.64C151.827 194.582 153.241 193.098 155.187 193.098ZM155.187 194.106C153.997 194.106 152.947 195.016 152.947 196.64C152.947 198.278 153.997 199.188 155.187 199.188C156.377 199.188 157.427 198.278 157.427 196.64C157.427 195.016 156.377 194.106 155.187 194.106ZM161.394 200H160.274V193.294H161.366V194.302C161.8 193.518 162.57 193.098 163.466 193.098C165.076 193.098 165.86 194.246 165.86 195.702V200H164.74V195.87C164.74 194.904 164.292 194.106 163.074 194.106C161.996 194.106 161.394 194.988 161.394 196.052V200ZM170.813 194.106C169.637 194.106 168.615 195.016 168.615 196.64C168.615 198.25 169.637 199.188 170.827 199.188C172.073 199.188 172.647 198.292 172.829 197.676L173.809 198.11C173.473 199.104 172.549 200.196 170.827 200.196C168.895 200.196 167.495 198.698 167.495 196.64C167.495 194.554 168.923 193.098 170.813 193.098C172.563 193.098 173.445 194.148 173.753 195.212L172.745 195.646C172.563 194.932 172.017 194.106 170.813 194.106ZM180.126 195.996C180.084 194.932 179.426 194.092 178.138 194.092C176.962 194.092 176.192 195.002 176.122 195.996H180.126ZM181.246 198.096C180.868 199.258 179.818 200.196 178.264 200.196C176.472 200.196 174.946 198.88 174.946 196.626C174.946 194.498 176.43 193.098 178.124 193.098C180.154 193.098 181.288 194.498 181.288 196.556C181.288 196.71 181.274 196.85 181.26 196.948H176.094V197.004C176.094 198.278 177.06 199.188 178.264 199.188C179.398 199.188 180.014 198.544 180.28 197.746L181.246 198.096ZM186.581 194.442C186.399 194.386 186.203 194.372 185.993 194.372C184.873 194.372 184.103 195.016 184.103 196.528V200H182.983V193.294H184.075V194.498C184.523 193.518 185.363 193.196 186.105 193.196C186.287 193.196 186.483 193.21 186.581 193.252V194.442ZM189.025 200H187.905V193.294H188.997V194.302C189.431 193.518 190.201 193.098 191.097 193.098C192.707 193.098 193.491 194.246 193.491 195.702V200H192.371V195.87C192.371 194.904 191.923 194.106 190.705 194.106C189.627 194.106 189.025 194.988 189.025 196.052V200Z" fill="#222222"/>
<path d="M434.255 14V9.758H429.593V14H427.913V4.074H429.593V8.176H434.255V4.074H435.949V14H434.255ZM441.159 12.754C442.167 12.754 443.063 11.998 443.063 10.584C443.063 9.17 442.167 8.442 441.159 8.442C440.165 8.442 439.255 9.17 439.255 10.584C439.255 11.998 440.165 12.754 441.159 12.754ZM441.159 6.972C443.203 6.972 444.701 8.512 444.701 10.584C444.701 12.67 443.203 14.21 441.159 14.21C439.129 14.21 437.631 12.67 437.631 10.584C437.631 8.512 439.129 6.972 441.159 6.972ZM447.22 11.76C447.276 12.376 447.724 12.922 448.606 12.922C449.278 12.922 449.628 12.572 449.628 12.138C449.628 11.76 449.376 11.494 448.83 11.382L447.822 11.158C446.604 10.892 445.988 10.122 445.988 9.17C445.988 7.98 447.094 6.972 448.494 6.972C450.398 6.972 451.014 8.204 451.126 8.876L449.754 9.268C449.67 8.876 449.404 8.246 448.494 8.246C447.92 8.246 447.514 8.596 447.514 9.03C447.514 9.408 447.766 9.646 448.2 9.744L449.236 9.954C450.524 10.234 451.196 11.018 451.196 12.026C451.196 13.062 450.356 14.21 448.62 14.21C446.66 14.21 445.876 12.936 445.806 12.152L447.22 11.76ZM454.932 7.182H456.346V8.624H454.932V11.788C454.932 12.39 455.198 12.642 455.8 12.642C456.024 12.642 456.29 12.6 456.36 12.586V13.93C456.262 13.972 455.968 14.084 455.366 14.084C454.092 14.084 453.322 13.342 453.322 12.054V8.624H452.062V7.182H452.412C453.14 7.182 453.462 6.72 453.462 6.118V5.096H454.932V7.182ZM457.903 14V7.182H459.513V14H457.903ZM457.651 4.788C457.651 4.186 458.127 3.724 458.701 3.724C459.303 3.724 459.765 4.186 459.765 4.788C459.765 5.39 459.303 5.838 458.701 5.838C458.127 5.838 457.651 5.39 457.651 4.788ZM463.15 14H461.526V7.182H463.108V8.092C463.556 7.308 464.354 6.986 465.124 6.986C466.79 6.986 467.588 8.19 467.588 9.688V14H465.964V9.968C465.964 9.128 465.586 8.456 464.564 8.456C463.626 8.456 463.15 9.17 463.15 10.066V14ZM470.602 13.986C470.714 14.826 471.358 15.456 472.31 15.456C473.598 15.456 474.242 14.77 474.242 13.412V12.698C473.948 13.244 473.276 13.692 472.268 13.692C470.448 13.692 469.118 12.278 469.118 10.374C469.118 8.554 470.406 7.056 472.268 7.056C473.332 7.056 473.99 7.49 474.284 8.05V7.182H475.852V13.356C475.852 15.176 474.914 16.87 472.352 16.87C470.546 16.87 469.286 15.764 469.104 14.378L470.602 13.986ZM472.534 12.306C473.584 12.306 474.284 11.55 474.284 10.374C474.284 9.198 473.542 8.456 472.534 8.456C471.484 8.456 470.756 9.198 470.756 10.374C470.756 11.564 471.47 12.306 472.534 12.306Z" fill="#222222"/>
<path d="M433.877 42.102H429.327L428.221 45H426.947L430.923 35.074H432.295L436.285 45H435.011L433.877 42.102ZM429.747 41.024H433.457L431.595 36.278L429.747 41.024ZM437.644 45V38.294H438.764V45H437.644ZM437.364 35.648C437.364 35.186 437.742 34.808 438.204 34.808C438.666 34.808 439.044 35.186 439.044 35.648C439.044 36.11 438.666 36.488 438.204 36.488C437.742 36.488 437.364 36.11 437.364 35.648ZM444.55 39.442C444.368 39.386 444.172 39.372 443.962 39.372C442.842 39.372 442.072 40.016 442.072 41.528V45H440.952V38.294H442.044V39.498C442.492 38.518 443.332 38.196 444.074 38.196C444.256 38.196 444.452 38.21 444.55 38.252V39.442ZM445.874 45V34.878H446.994V39.386C447.288 38.756 448.1 38.098 449.29 38.098C451.278 38.098 452.342 39.68 452.342 41.64C452.342 43.642 451.208 45.196 449.262 45.196C448.142 45.196 447.358 44.622 446.966 43.894V45H445.874ZM449.094 44.188C450.382 44.188 451.222 43.138 451.222 41.64C451.222 40.156 450.396 39.106 449.094 39.106C447.792 39.106 446.966 40.156 446.966 41.64C446.966 43.138 447.806 44.188 449.094 44.188ZM455.197 45H454.077V38.294H455.169V39.302C455.603 38.518 456.373 38.098 457.269 38.098C458.879 38.098 459.663 39.246 459.663 40.702V45H458.543V40.87C458.543 39.904 458.095 39.106 456.877 39.106C455.799 39.106 455.197 39.988 455.197 41.052V45ZM461.761 45V34.878H462.881V39.386C463.175 38.756 463.987 38.098 465.177 38.098C467.165 38.098 468.229 39.68 468.229 41.64C468.229 43.642 467.095 45.196 465.149 45.196C464.029 45.196 463.245 44.622 462.853 43.894V45H461.761ZM464.981 44.188C466.269 44.188 467.109 43.138 467.109 41.64C467.109 40.156 466.283 39.106 464.981 39.106C463.679 39.106 462.853 40.156 462.853 41.64C462.853 43.138 463.693 44.188 464.981 44.188ZM473.625 47.66L475.249 44.202L472.365 38.294H473.653L475.865 43.04L477.951 38.294H479.169L474.871 47.66H473.625ZM483.184 38.098C485.13 38.098 486.544 39.582 486.544 41.64C486.544 43.712 485.13 45.196 483.184 45.196C481.238 45.196 479.824 43.712 479.824 41.64C479.824 39.582 481.238 38.098 483.184 38.098ZM483.184 39.106C481.994 39.106 480.944 40.016 480.944 41.64C480.944 43.278 481.994 44.188 483.184 44.188C484.374 44.188 485.424 43.278 485.424 41.64C485.424 40.016 484.374 39.106 483.184 39.106ZM492.722 44.09C492.4 44.776 491.602 45.196 490.706 45.196C489.082 45.196 488.186 44.006 488.186 42.508V38.294H489.306V42.326C489.306 43.292 489.768 44.188 490.958 44.188C492.078 44.188 492.666 43.404 492.666 42.34V38.294H493.786V43.74C493.786 44.258 493.828 44.734 493.87 45H492.792C492.75 44.846 492.722 44.482 492.722 44.146V44.09ZM499.566 39.442C499.384 39.386 499.188 39.372 498.978 39.372C497.858 39.372 497.088 40.016 497.088 41.528V45H495.968V38.294H497.06V39.498C497.508 38.518 498.348 38.196 499.09 38.196C499.272 38.196 499.468 38.21 499.566 38.252V39.442ZM505.264 45H504.144V34.878H505.264V39.19C505.698 38.476 506.454 38.098 507.336 38.098C508.946 38.098 509.73 39.246 509.73 40.702V45H508.61V40.87C508.61 39.904 508.162 39.106 506.944 39.106C505.88 39.106 505.264 39.946 505.264 40.996V45ZM514.725 38.098C516.671 38.098 518.085 39.582 518.085 41.64C518.085 43.712 516.671 45.196 514.725 45.196C512.779 45.196 511.365 43.712 511.365 41.64C511.365 39.582 512.779 38.098 514.725 38.098ZM514.725 39.106C513.535 39.106 512.485 40.016 512.485 41.64C512.485 43.278 513.535 44.188 514.725 44.188C515.915 44.188 516.965 43.278 516.965 41.64C516.965 40.016 515.915 39.106 514.725 39.106ZM520.903 39.246C521.281 38.532 522.079 38.098 522.961 38.098C523.899 38.098 524.683 38.574 525.019 39.47C525.509 38.518 526.335 38.098 527.287 38.098C528.505 38.098 529.597 38.952 529.597 40.618V45H528.477V40.744C528.477 39.82 528.001 39.106 526.937 39.106C525.943 39.106 525.271 39.918 525.271 40.926V45H524.151V40.744C524.151 39.806 523.661 39.106 522.597 39.106C521.589 39.106 520.931 39.89 520.931 40.94V45H519.811V38.294H520.903V39.246ZM536.41 40.996C536.368 39.932 535.71 39.092 534.422 39.092C533.246 39.092 532.476 40.002 532.406 40.996H536.41ZM537.53 43.096C537.152 44.258 536.102 45.196 534.548 45.196C532.756 45.196 531.23 43.88 531.23 41.626C531.23 39.498 532.714 38.098 534.408 38.098C536.438 38.098 537.572 39.498 537.572 41.556C537.572 41.71 537.558 41.85 537.544 41.948H532.378V42.004C532.378 43.278 533.344 44.188 534.548 44.188C535.682 44.188 536.298 43.544 536.564 42.746L537.53 43.096Z" fill="#222222"/>
<path d="M433.877 73.102H429.327L428.221 76H426.947L430.923 66.074H432.295L436.285 76H435.011L433.877 73.102ZM429.747 72.024H433.457L431.595 67.278L429.747 72.024ZM437.644 76V69.294H438.764V76H437.644ZM437.364 66.648C437.364 66.186 437.742 65.808 438.204 65.808C438.666 65.808 439.044 66.186 439.044 66.648C439.044 67.11 438.666 67.488 438.204 67.488C437.742 67.488 437.364 67.11 437.364 66.648ZM444.55 70.442C444.368 70.386 444.172 70.372 443.962 70.372C442.842 70.372 442.072 71.016 442.072 72.528V76H440.952V69.294H442.044V70.498C442.492 69.518 443.332 69.196 444.074 69.196C444.256 69.196 444.452 69.21 444.55 69.252V70.442ZM450.368 76.196C447.848 76.196 445.482 74.334 445.482 71.03C445.482 67.712 447.918 65.878 450.368 65.878C452.608 65.878 454.218 67.124 454.708 69.028L453.616 69.406C453.238 67.838 452.062 66.956 450.368 66.956C448.478 66.956 446.658 68.342 446.658 71.03C446.658 73.732 448.478 75.118 450.368 75.118C452.132 75.118 453.28 74.04 453.686 72.626L454.722 73.004C454.204 74.866 452.65 76.196 450.368 76.196ZM459.217 69.098C461.163 69.098 462.577 70.582 462.577 72.64C462.577 74.712 461.163 76.196 459.217 76.196C457.271 76.196 455.857 74.712 455.857 72.64C455.857 70.582 457.271 69.098 459.217 69.098ZM459.217 70.106C458.027 70.106 456.977 71.016 456.977 72.64C456.977 74.278 458.027 75.188 459.217 75.188C460.407 75.188 461.457 74.278 461.457 72.64C461.457 71.016 460.407 70.106 459.217 70.106ZM467.151 76H466.017L463.315 69.294H464.575L466.591 74.698L468.621 69.294H469.825L467.151 76ZM475.748 71.996C475.706 70.932 475.048 70.092 473.76 70.092C472.584 70.092 471.814 71.002 471.744 71.996H475.748ZM476.868 74.096C476.49 75.258 475.44 76.196 473.886 76.196C472.094 76.196 470.568 74.88 470.568 72.626C470.568 70.498 472.052 69.098 473.746 69.098C475.776 69.098 476.91 70.498 476.91 72.556C476.91 72.71 476.896 72.85 476.882 72.948H471.716V73.004C471.716 74.278 472.682 75.188 473.886 75.188C475.02 75.188 475.636 74.544 475.902 73.746L476.868 74.096ZM482.202 70.442C482.02 70.386 481.824 70.372 481.614 70.372C480.494 70.372 479.724 71.016 479.724 72.528V76H478.604V69.294H479.696V70.498C480.144 69.518 480.984 69.196 481.726 69.196C481.908 69.196 482.104 69.21 482.202 69.252V70.442ZM488.199 70.302V76H487.079V70.302H485.763V69.294H487.079V68.048C487.079 66.578 488.003 65.808 489.193 65.808C489.599 65.808 489.865 65.892 489.963 65.948V66.914C489.865 66.872 489.683 66.816 489.361 66.816C488.815 66.816 488.199 67.124 488.199 68.076V69.294H489.935V70.302H488.199ZM494.04 69.098C495.986 69.098 497.4 70.582 497.4 72.64C497.4 74.712 495.986 76.196 494.04 76.196C492.094 76.196 490.68 74.712 490.68 72.64C490.68 70.582 492.094 69.098 494.04 69.098ZM494.04 70.106C492.85 70.106 491.8 71.016 491.8 72.64C491.8 74.278 492.85 75.188 494.04 75.188C495.23 75.188 496.28 74.278 496.28 72.64C496.28 71.016 495.23 70.106 494.04 70.106ZM502.724 70.442C502.542 70.386 502.346 70.372 502.136 70.372C501.016 70.372 500.246 71.016 500.246 72.528V76H499.126V69.294H500.218V70.498C500.666 69.518 501.506 69.196 502.248 69.196C502.43 69.196 502.626 69.21 502.724 69.252V70.442ZM508.422 76H507.302V65.878H508.422V70.19C508.856 69.476 509.612 69.098 510.494 69.098C512.104 69.098 512.888 70.246 512.888 71.702V76H511.768V71.87C511.768 70.904 511.32 70.106 510.102 70.106C509.038 70.106 508.422 70.946 508.422 71.996V76ZM517.883 69.098C519.829 69.098 521.243 70.582 521.243 72.64C521.243 74.712 519.829 76.196 517.883 76.196C515.937 76.196 514.523 74.712 514.523 72.64C514.523 70.582 515.937 69.098 517.883 69.098ZM517.883 70.106C516.693 70.106 515.643 71.016 515.643 72.64C515.643 74.278 516.693 75.188 517.883 75.188C519.073 75.188 520.123 74.278 520.123 72.64C520.123 71.016 519.073 70.106 517.883 70.106ZM523.432 73.886C523.53 74.67 524.104 75.244 525.112 75.244C525.91 75.244 526.414 74.796 526.414 74.222C526.414 73.718 526.008 73.396 525.392 73.242L524.3 72.99C523.278 72.752 522.634 72.094 522.634 71.128C522.634 70.008 523.698 69.098 524.972 69.098C526.708 69.098 527.31 70.204 527.464 70.89L526.47 71.254C526.4 70.806 526.022 70.05 524.972 70.05C524.258 70.05 523.726 70.498 523.726 71.058C523.726 71.52 524.02 71.828 524.608 71.968L525.7 72.22C526.876 72.486 527.52 73.158 527.52 74.166C527.52 75.132 526.694 76.196 525.098 76.196C523.334 76.196 522.536 75.076 522.424 74.236L523.432 73.886ZM530.869 69.294H532.451V70.302H530.869V74.012C530.869 74.726 531.177 75.062 531.891 75.062C532.101 75.062 532.339 75.034 532.451 74.992V75.944C532.325 75.986 532.003 76.07 531.569 76.07C530.449 76.07 529.749 75.398 529.749 74.166V70.302H528.405V69.294H528.839C529.525 69.294 529.819 68.902 529.819 68.272V67.166H530.869V69.294ZM534.451 73.886C534.549 74.67 535.123 75.244 536.131 75.244C536.929 75.244 537.433 74.796 537.433 74.222C537.433 73.718 537.027 73.396 536.411 73.242L535.319 72.99C534.297 72.752 533.653 72.094 533.653 71.128C533.653 70.008 534.717 69.098 535.991 69.098C537.727 69.098 538.329 70.204 538.483 70.89L537.489 71.254C537.419 70.806 537.041 70.05 535.991 70.05C535.277 70.05 534.745 70.498 534.745 71.058C534.745 71.52 535.039 71.828 535.627 71.968L536.719 72.22C537.895 72.486 538.539 73.158 538.539 74.166C538.539 75.132 537.713 76.196 536.117 76.196C534.353 76.196 533.555 75.076 533.443 74.236L534.451 73.886Z" fill="#222222"/>
<path d="M434.521 107V102.492H429.215V107H428.039V97.074H429.215V101.414H434.521V97.074H435.697V107H434.521ZM440.911 100.098C442.857 100.098 444.271 101.582 444.271 103.64C444.271 105.712 442.857 107.196 440.911 107.196C438.965 107.196 437.551 105.712 437.551 103.64C437.551 101.582 438.965 100.098 440.911 100.098ZM440.911 101.106C439.721 101.106 438.671 102.016 438.671 103.64C438.671 105.278 439.721 106.188 440.911 106.188C442.101 106.188 443.151 105.278 443.151 103.64C443.151 102.016 442.101 101.106 440.911 101.106ZM446.459 104.886C446.557 105.67 447.131 106.244 448.139 106.244C448.937 106.244 449.441 105.796 449.441 105.222C449.441 104.718 449.035 104.396 448.419 104.242L447.327 103.99C446.305 103.752 445.661 103.094 445.661 102.128C445.661 101.008 446.725 100.098 447.999 100.098C449.735 100.098 450.337 101.204 450.491 101.89L449.497 102.254C449.427 101.806 449.049 101.05 447.999 101.05C447.285 101.05 446.753 101.498 446.753 102.058C446.753 102.52 447.047 102.828 447.635 102.968L448.727 103.22C449.903 103.486 450.547 104.158 450.547 105.166C450.547 106.132 449.721 107.196 448.125 107.196C446.361 107.196 445.563 106.076 445.451 105.236L446.459 104.886ZM453.896 100.294H455.478V101.302H453.896V105.012C453.896 105.726 454.204 106.062 454.918 106.062C455.128 106.062 455.366 106.034 455.478 105.992V106.944C455.352 106.986 455.03 107.07 454.596 107.07C453.476 107.07 452.776 106.398 452.776 105.166V101.302H451.432V100.294H451.866C452.552 100.294 452.846 99.902 452.846 99.272V98.166H453.896V100.294ZM457.017 107V100.294H458.137V107H457.017ZM456.737 97.648C456.737 97.186 457.115 96.808 457.577 96.808C458.039 96.808 458.417 97.186 458.417 97.648C458.417 98.11 458.039 98.488 457.577 98.488C457.115 98.488 456.737 98.11 456.737 97.648ZM461.445 107H460.325V100.294H461.417V101.302C461.851 100.518 462.621 100.098 463.517 100.098C465.127 100.098 465.911 101.246 465.911 102.702V107H464.791V102.87C464.791 101.904 464.343 101.106 463.125 101.106C462.047 101.106 461.445 101.988 461.445 103.052V107ZM468.625 107.112C468.737 108.106 469.465 108.848 470.571 108.848C472.139 108.848 472.713 107.924 472.713 106.538V105.46C472.391 106.118 471.691 106.706 470.585 106.706C468.807 106.706 467.561 105.278 467.561 103.416C467.561 101.54 468.793 100.098 470.613 100.098C471.677 100.098 472.391 100.588 472.727 101.246V100.294H473.833V106.496C473.833 108.134 473.091 109.856 470.571 109.856C468.947 109.856 467.701 108.792 467.547 107.378L468.625 107.112ZM472.769 103.402C472.769 102.002 471.957 101.106 470.725 101.106C469.493 101.106 468.681 102.002 468.681 103.402C468.681 104.802 469.493 105.698 470.725 105.698C471.957 105.698 472.769 104.802 472.769 103.402ZM483.187 101.442C483.005 101.386 482.809 101.372 482.599 101.372C481.479 101.372 480.709 102.016 480.709 103.528V107H479.589V100.294H480.681V101.498C481.129 100.518 481.969 100.196 482.711 100.196C482.893 100.196 483.089 100.21 483.187 100.252V101.442ZM489.078 102.996C489.036 101.932 488.378 101.092 487.09 101.092C485.914 101.092 485.144 102.002 485.074 102.996H489.078ZM490.198 105.096C489.82 106.258 488.77 107.196 487.216 107.196C485.424 107.196 483.898 105.88 483.898 103.626C483.898 101.498 485.382 100.098 487.076 100.098C489.106 100.098 490.24 101.498 490.24 103.556C490.24 103.71 490.226 103.85 490.212 103.948H485.046V104.004C485.046 105.278 486.012 106.188 487.216 106.188C488.35 106.188 488.966 105.544 489.232 104.746L490.198 105.096ZM492.397 104.886C492.495 105.67 493.069 106.244 494.077 106.244C494.875 106.244 495.379 105.796 495.379 105.222C495.379 104.718 494.973 104.396 494.357 104.242L493.265 103.99C492.243 103.752 491.599 103.094 491.599 102.128C491.599 101.008 492.663 100.098 493.937 100.098C495.673 100.098 496.275 101.204 496.429 101.89L495.435 102.254C495.365 101.806 494.987 101.05 493.937 101.05C493.223 101.05 492.691 101.498 492.691 102.058C492.691 102.52 492.985 102.828 493.573 102.968L494.665 103.22C495.841 103.486 496.485 104.158 496.485 105.166C496.485 106.132 495.659 107.196 494.063 107.196C492.299 107.196 491.501 106.076 491.389 105.236L492.397 104.886ZM501.108 100.098C503.054 100.098 504.468 101.582 504.468 103.64C504.468 105.712 503.054 107.196 501.108 107.196C499.162 107.196 497.748 105.712 497.748 103.64C497.748 101.582 499.162 100.098 501.108 100.098ZM501.108 101.106C499.918 101.106 498.868 102.016 498.868 103.64C498.868 105.278 499.918 106.188 501.108 106.188C502.298 106.188 503.348 105.278 503.348 103.64C503.348 102.016 502.298 101.106 501.108 101.106ZM510.646 106.09C510.324 106.776 509.526 107.196 508.63 107.196C507.006 107.196 506.11 106.006 506.11 104.508V100.294H507.23V104.326C507.23 105.292 507.692 106.188 508.882 106.188C510.002 106.188 510.59 105.404 510.59 104.34V100.294H511.71V105.74C511.71 106.258 511.752 106.734 511.794 107H510.716C510.674 106.846 510.646 106.482 510.646 106.146V106.09ZM517.49 101.442C517.308 101.386 517.112 101.372 516.902 101.372C515.782 101.372 515.012 102.016 515.012 103.528V107H513.892V100.294H514.984V101.498C515.432 100.518 516.272 100.196 517.014 100.196C517.196 100.196 517.392 100.21 517.49 100.252V101.442ZM521.519 101.106C520.343 101.106 519.321 102.016 519.321 103.64C519.321 105.25 520.343 106.188 521.533 106.188C522.779 106.188 523.353 105.292 523.535 104.676L524.515 105.11C524.179 106.104 523.255 107.196 521.533 107.196C519.601 107.196 518.201 105.698 518.201 103.64C518.201 101.554 519.629 100.098 521.519 100.098C523.269 100.098 524.151 101.148 524.459 102.212L523.451 102.646C523.269 101.932 522.723 101.106 521.519 101.106ZM530.832 102.996C530.79 101.932 530.132 101.092 528.844 101.092C527.668 101.092 526.898 102.002 526.828 102.996H530.832ZM531.952 105.096C531.574 106.258 530.524 107.196 528.97 107.196C527.178 107.196 525.652 105.88 525.652 103.626C525.652 101.498 527.136 100.098 528.83 100.098C530.86 100.098 531.994 101.498 531.994 103.556C531.994 103.71 531.98 103.85 531.966 103.948H526.8V104.004C526.8 105.278 527.766 106.188 528.97 106.188C530.104 106.188 530.72 105.544 530.986 104.746L531.952 105.096ZM534.15 104.886C534.248 105.67 534.822 106.244 535.83 106.244C536.628 106.244 537.132 105.796 537.132 105.222C537.132 104.718 536.726 104.396 536.11 104.242L535.018 103.99C533.996 103.752 533.352 103.094 533.352 102.128C533.352 101.008 534.416 100.098 535.69 100.098C537.426 100.098 538.028 101.204 538.182 101.89L537.188 102.254C537.118 101.806 536.74 101.05 535.69 101.05C534.976 101.05 534.444 101.498 534.444 102.058C534.444 102.52 534.738 102.828 535.326 102.968L536.418 103.22C537.594 103.486 538.238 104.158 538.238 105.166C538.238 106.132 537.412 107.196 535.816 107.196C534.052 107.196 533.254 106.076 533.142 105.236L534.15 104.886Z" fill="#222222"/>
<path d="M432.253 138.196C429.733 138.196 427.367 136.334 427.367 133.03C427.367 129.712 429.803 127.878 432.253 127.878C434.493 127.878 436.103 129.124 436.593 131.028L435.501 131.406C435.123 129.838 433.947 128.956 432.253 128.956C430.363 128.956 428.543 130.342 428.543 133.03C428.543 135.732 430.363 137.118 432.253 137.118C434.017 137.118 435.165 136.04 435.571 134.626L436.607 135.004C436.089 136.866 434.535 138.196 432.253 138.196ZM441.102 131.098C443.048 131.098 444.462 132.582 444.462 134.64C444.462 136.712 443.048 138.196 441.102 138.196C439.156 138.196 437.742 136.712 437.742 134.64C437.742 132.582 439.156 131.098 441.102 131.098ZM441.102 132.106C439.912 132.106 438.862 133.016 438.862 134.64C438.862 136.278 439.912 137.188 441.102 137.188C442.292 137.188 443.342 136.278 443.342 134.64C443.342 133.016 442.292 132.106 441.102 132.106ZM447.28 132.246C447.658 131.532 448.456 131.098 449.338 131.098C450.276 131.098 451.06 131.574 451.396 132.47C451.886 131.518 452.712 131.098 453.664 131.098C454.882 131.098 455.974 131.952 455.974 133.618V138H454.854V133.744C454.854 132.82 454.378 132.106 453.314 132.106C452.32 132.106 451.648 132.918 451.648 133.926V138H450.528V133.744C450.528 132.806 450.038 132.106 448.974 132.106C447.966 132.106 447.308 132.89 447.308 133.94V138H446.188V131.294H447.28V132.246ZM459.161 132.246C459.539 131.532 460.337 131.098 461.219 131.098C462.157 131.098 462.941 131.574 463.277 132.47C463.767 131.518 464.593 131.098 465.545 131.098C466.763 131.098 467.855 131.952 467.855 133.618V138H466.735V133.744C466.735 132.82 466.259 132.106 465.195 132.106C464.201 132.106 463.529 132.918 463.529 133.926V138H462.409V133.744C462.409 132.806 461.919 132.106 460.855 132.106C459.847 132.106 459.189 132.89 459.189 133.94V138H458.069V131.294H459.161V132.246ZM474.402 137.09C474.08 137.776 473.282 138.196 472.386 138.196C470.762 138.196 469.866 137.006 469.866 135.508V131.294H470.986V135.326C470.986 136.292 471.448 137.188 472.638 137.188C473.758 137.188 474.346 136.404 474.346 135.34V131.294H475.466V136.74C475.466 137.258 475.508 137.734 475.55 138H474.472C474.43 137.846 474.402 137.482 474.402 137.146V137.09ZM478.767 138H477.647V131.294H478.739V132.302C479.173 131.518 479.943 131.098 480.839 131.098C482.449 131.098 483.233 132.246 483.233 133.702V138H482.113V133.87C482.113 132.904 481.665 132.106 480.447 132.106C479.369 132.106 478.767 132.988 478.767 134.052V138ZM485.331 138V131.294H486.451V138H485.331ZM485.051 128.648C485.051 128.186 485.429 127.808 485.891 127.808C486.353 127.808 486.731 128.186 486.731 128.648C486.731 129.11 486.353 129.488 485.891 129.488C485.429 129.488 485.051 129.11 485.051 128.648ZM490.264 131.294H491.846V132.302H490.264V136.012C490.264 136.726 490.572 137.062 491.286 137.062C491.496 137.062 491.734 137.034 491.846 136.992V137.944C491.72 137.986 491.398 138.07 490.964 138.07C489.844 138.07 489.144 137.398 489.144 136.166V132.302H487.8V131.294H488.234C488.92 131.294 489.214 130.902 489.214 130.272V129.166H490.264V131.294ZM493.846 140.66L495.47 137.202L492.586 131.294H493.874L496.086 136.04L498.172 131.294H499.39L495.092 140.66H493.846ZM505.344 132.302V138H504.224V132.302H502.908V131.294H504.224V130.048C504.224 128.578 505.148 127.808 506.338 127.808C506.744 127.808 507.01 127.892 507.108 127.948V128.914C507.01 128.872 506.828 128.816 506.506 128.816C505.96 128.816 505.344 129.124 505.344 130.076V131.294H507.08V132.302H505.344ZM511.184 131.098C513.13 131.098 514.544 132.582 514.544 134.64C514.544 136.712 513.13 138.196 511.184 138.196C509.238 138.196 507.824 136.712 507.824 134.64C507.824 132.582 509.238 131.098 511.184 131.098ZM511.184 132.106C509.994 132.106 508.944 133.016 508.944 134.64C508.944 136.278 509.994 137.188 511.184 137.188C512.374 137.188 513.424 136.278 513.424 134.64C513.424 133.016 512.374 132.106 511.184 132.106ZM519.868 132.442C519.686 132.386 519.49 132.372 519.28 132.372C518.16 132.372 517.39 133.016 517.39 134.528V138H516.27V131.294H517.362V132.498C517.81 131.518 518.65 131.196 519.392 131.196C519.574 131.196 519.77 131.21 519.868 131.252V132.442ZM525.644 137.09C525.322 137.776 524.524 138.196 523.628 138.196C522.004 138.196 521.108 137.006 521.108 135.508V131.294H522.228V135.326C522.228 136.292 522.69 137.188 523.88 137.188C525 137.188 525.588 136.404 525.588 135.34V131.294H526.708V136.74C526.708 137.258 526.75 137.734 526.792 138H525.714C525.672 137.846 525.644 137.482 525.644 137.146V137.09ZM529.982 132.246C530.36 131.532 531.158 131.098 532.04 131.098C532.978 131.098 533.762 131.574 534.098 132.47C534.588 131.518 535.414 131.098 536.366 131.098C537.584 131.098 538.676 131.952 538.676 133.618V138H537.556V133.744C537.556 132.82 537.08 132.106 536.016 132.106C535.022 132.106 534.35 132.918 534.35 133.926V138H533.23V133.744C533.23 132.806 532.74 132.106 531.676 132.106C530.668 132.106 530.01 132.89 530.01 133.94V138H528.89V131.294H529.982V132.246Z" fill="#222222"/>
<path d="M434.521 169V164.492H429.215V169H428.039V159.074H429.215V163.414H434.521V159.074H435.697V169H434.521ZM440.911 162.098C442.857 162.098 444.271 163.582 444.271 165.64C444.271 167.712 442.857 169.196 440.911 169.196C438.965 169.196 437.551 167.712 437.551 165.64C437.551 163.582 438.965 162.098 440.911 162.098ZM440.911 163.106C439.721 163.106 438.671 164.016 438.671 165.64C438.671 167.278 439.721 168.188 440.911 168.188C442.101 168.188 443.151 167.278 443.151 165.64C443.151 164.016 442.101 163.106 440.911 163.106ZM446.459 166.886C446.557 167.67 447.131 168.244 448.139 168.244C448.937 168.244 449.441 167.796 449.441 167.222C449.441 166.718 449.035 166.396 448.419 166.242L447.327 165.99C446.305 165.752 445.661 165.094 445.661 164.128C445.661 163.008 446.725 162.098 447.999 162.098C449.735 162.098 450.337 163.204 450.491 163.89L449.497 164.254C449.427 163.806 449.049 163.05 447.999 163.05C447.285 163.05 446.753 163.498 446.753 164.058C446.753 164.52 447.047 164.828 447.635 164.968L448.727 165.22C449.903 165.486 450.547 166.158 450.547 167.166C450.547 168.132 449.721 169.196 448.125 169.196C446.361 169.196 445.563 168.076 445.451 167.236L446.459 166.886ZM453.896 162.294H455.478V163.302H453.896V167.012C453.896 167.726 454.204 168.062 454.918 168.062C455.128 168.062 455.366 168.034 455.478 167.992V168.944C455.352 168.986 455.03 169.07 454.596 169.07C453.476 169.07 452.776 168.398 452.776 167.166V163.302H451.432V162.294H451.866C452.552 162.294 452.846 161.902 452.846 161.272V160.166H453.896V162.294ZM457.017 169V162.294H458.137V169H457.017ZM456.737 159.648C456.737 159.186 457.115 158.808 457.577 158.808C458.039 158.808 458.417 159.186 458.417 159.648C458.417 160.11 458.039 160.488 457.577 160.488C457.115 160.488 456.737 160.11 456.737 159.648ZM461.445 169H460.325V162.294H461.417V163.302C461.851 162.518 462.621 162.098 463.517 162.098C465.127 162.098 465.911 163.246 465.911 164.702V169H464.791V164.87C464.791 163.904 464.343 163.106 463.125 163.106C462.047 163.106 461.445 163.988 461.445 165.052V169ZM468.625 169.112C468.737 170.106 469.465 170.848 470.571 170.848C472.139 170.848 472.713 169.924 472.713 168.538V167.46C472.391 168.118 471.691 168.706 470.585 168.706C468.807 168.706 467.561 167.278 467.561 165.416C467.561 163.54 468.793 162.098 470.613 162.098C471.677 162.098 472.391 162.588 472.727 163.246V162.294H473.833V168.496C473.833 170.134 473.091 171.856 470.571 171.856C468.947 171.856 467.701 170.792 467.547 169.378L468.625 169.112ZM472.769 165.402C472.769 164.002 471.957 163.106 470.725 163.106C469.493 163.106 468.681 164.002 468.681 165.402C468.681 166.802 469.493 167.698 470.725 167.698C471.957 167.698 472.769 166.802 472.769 165.402ZM483.187 163.442C483.005 163.386 482.809 163.372 482.599 163.372C481.479 163.372 480.709 164.016 480.709 165.528V169H479.589V162.294H480.681V163.498C481.129 162.518 481.969 162.196 482.711 162.196C482.893 162.196 483.089 162.21 483.187 162.252V163.442ZM489.078 164.996C489.036 163.932 488.378 163.092 487.09 163.092C485.914 163.092 485.144 164.002 485.074 164.996H489.078ZM490.198 167.096C489.82 168.258 488.77 169.196 487.216 169.196C485.424 169.196 483.898 167.88 483.898 165.626C483.898 163.498 485.382 162.098 487.076 162.098C489.106 162.098 490.24 163.498 490.24 165.556C490.24 165.71 490.226 165.85 490.212 165.948H485.046V166.004C485.046 167.278 486.012 168.188 487.216 168.188C488.35 168.188 488.966 167.544 489.232 166.746L490.198 167.096ZM492.397 166.886C492.495 167.67 493.069 168.244 494.077 168.244C494.875 168.244 495.379 167.796 495.379 167.222C495.379 166.718 494.973 166.396 494.357 166.242L493.265 165.99C492.243 165.752 491.599 165.094 491.599 164.128C491.599 163.008 492.663 162.098 493.937 162.098C495.673 162.098 496.275 163.204 496.429 163.89L495.435 164.254C495.365 163.806 494.987 163.05 493.937 163.05C493.223 163.05 492.691 163.498 492.691 164.058C492.691 164.52 492.985 164.828 493.573 164.968L494.665 165.22C495.841 165.486 496.485 166.158 496.485 167.166C496.485 168.132 495.659 169.196 494.063 169.196C492.299 169.196 491.501 168.076 491.389 167.236L492.397 166.886ZM498.21 171.66V162.294H499.302V163.414C499.652 162.728 500.436 162.098 501.626 162.098C503.6 162.098 504.678 163.638 504.678 165.64C504.678 167.642 503.53 169.196 501.598 169.196C500.436 169.196 499.68 168.594 499.33 167.964V171.66H498.21ZM501.43 168.188C502.718 168.188 503.558 167.138 503.558 165.64C503.558 164.156 502.732 163.106 501.43 163.106C500.128 163.106 499.302 164.156 499.302 165.64C499.302 167.138 500.142 168.188 501.43 168.188ZM509.311 162.098C511.257 162.098 512.671 163.582 512.671 165.64C512.671 167.712 511.257 169.196 509.311 169.196C507.365 169.196 505.951 167.712 505.951 165.64C505.951 163.582 507.365 162.098 509.311 162.098ZM509.311 163.106C508.121 163.106 507.071 164.016 507.071 165.64C507.071 167.278 508.121 168.188 509.311 168.188C510.501 168.188 511.551 167.278 511.551 165.64C511.551 164.016 510.501 163.106 509.311 163.106ZM515.517 169H514.397V162.294H515.489V163.302C515.923 162.518 516.693 162.098 517.589 162.098C519.199 162.098 519.983 163.246 519.983 164.702V169H518.863V164.87C518.863 163.904 518.415 163.106 517.197 163.106C516.119 163.106 515.517 163.988 515.517 165.052V169ZM522.543 166.886C522.641 167.67 523.215 168.244 524.223 168.244C525.021 168.244 525.525 167.796 525.525 167.222C525.525 166.718 525.119 166.396 524.503 166.242L523.411 165.99C522.389 165.752 521.745 165.094 521.745 164.128C521.745 163.008 522.809 162.098 524.083 162.098C525.819 162.098 526.421 163.204 526.575 163.89L525.581 164.254C525.511 163.806 525.133 163.05 524.083 163.05C523.369 163.05 522.837 163.498 522.837 164.058C522.837 164.52 523.131 164.828 523.719 164.968L524.811 165.22C525.987 165.486 526.631 166.158 526.631 167.166C526.631 168.132 525.805 169.196 524.209 169.196C522.445 169.196 521.647 168.076 521.535 167.236L522.543 166.886ZM528.356 169V162.294H529.476V169H528.356ZM528.076 159.648C528.076 159.186 528.454 158.808 528.916 158.808C529.378 158.808 529.756 159.186 529.756 159.648C529.756 160.11 529.378 160.488 528.916 160.488C528.454 160.488 528.076 160.11 528.076 159.648ZM531.665 169V158.878H532.785V163.386C533.079 162.756 533.891 162.098 535.081 162.098C537.069 162.098 538.133 163.68 538.133 165.64C538.133 167.642 536.999 169.196 535.053 169.196C533.933 169.196 533.149 168.622 532.757 167.894V169H531.665ZM534.885 168.188C536.173 168.188 537.013 167.138 537.013 165.64C537.013 164.156 536.187 163.106 534.885 163.106C533.583 163.106 532.757 164.156 532.757 165.64C532.757 167.138 533.597 168.188 534.885 168.188ZM539.868 169V158.878H540.988V169H539.868ZM543.639 171.66L545.263 168.202L542.379 162.294H543.667L545.879 167.04L547.965 162.294H549.183L544.885 171.66H543.639Z" fill="#222222"/>
<path d="M860.417 11.508H856.217L855.293 14H853.515L857.379 4.074H859.325L863.189 14H861.355L860.417 11.508ZM856.805 9.954H859.829L858.317 5.894L856.805 9.954ZM864.377 14V7.182H865.987V14H864.377ZM864.125 4.788C864.125 4.186 864.601 3.724 865.175 3.724C865.777 3.724 866.239 4.186 866.239 4.788C866.239 5.39 865.777 5.838 865.175 5.838C864.601 5.838 864.125 5.39 864.125 4.788ZM871.99 8.792C871.808 8.764 871.626 8.75 871.458 8.75C870.184 8.75 869.624 9.464 869.624 10.752V14H868V7.182H869.582V8.274C869.904 7.532 870.66 7.098 871.556 7.098C871.766 7.098 871.92 7.126 871.99 7.14V8.792ZM873.277 14V3.864H874.873V8.022C875.195 7.476 875.951 7 877.015 7C879.073 7 880.165 8.554 880.165 10.556C880.165 12.628 878.933 14.168 876.959 14.168C875.993 14.168 875.251 13.748 874.859 13.09V14H873.277ZM878.527 10.57C878.527 9.212 877.771 8.442 876.693 8.442C875.643 8.442 874.859 9.212 874.859 10.57C874.859 11.914 875.643 12.726 876.693 12.726C877.757 12.726 878.527 11.914 878.527 10.57ZM883.391 14H881.767V7.182H883.349V8.092C883.797 7.308 884.595 6.986 885.365 6.986C887.031 6.986 887.829 8.19 887.829 9.688V14H886.205V9.968C886.205 9.128 885.827 8.456 884.805 8.456C883.867 8.456 883.391 9.17 883.391 10.066V14ZM889.779 14V3.864H891.375V8.022C891.697 7.476 892.453 7 893.517 7C895.575 7 896.667 8.554 896.667 10.556C896.667 12.628 895.435 14.168 893.461 14.168C892.495 14.168 891.753 13.748 891.361 13.09V14H889.779ZM895.029 10.57C895.029 9.212 894.273 8.442 893.195 8.442C892.145 8.442 891.361 9.212 891.361 10.57C891.361 11.914 892.145 12.726 893.195 12.726C894.259 12.726 895.029 11.914 895.029 10.57Z" fill="#222222"/>
<path d="M861.509 45L855.881 36.6V45H854.705V35.074H856.245L861.565 43.026V35.074H862.741V45H861.509ZM869.767 40.996C869.725 39.932 869.067 39.092 867.779 39.092C866.603 39.092 865.833 40.002 865.763 40.996H869.767ZM870.887 43.096C870.509 44.258 869.459 45.196 867.905 45.196C866.113 45.196 864.587 43.88 864.587 41.626C864.587 39.498 866.071 38.098 867.765 38.098C869.795 38.098 870.929 39.498 870.929 41.556C870.929 41.71 870.915 41.85 870.901 41.948H865.735V42.004C865.735 43.278 866.701 44.188 867.905 44.188C869.039 44.188 869.655 43.544 869.921 42.746L870.887 43.096ZM877.611 38.294L879.473 43.6L881.069 38.294H882.259L880.075 45H878.899L877.023 39.652L875.175 45H873.985L871.759 38.294H872.963L874.601 43.6L876.449 38.294H877.611ZM884.077 42.886C884.175 43.67 884.749 44.244 885.757 44.244C886.555 44.244 887.059 43.796 887.059 43.222C887.059 42.718 886.653 42.396 886.037 42.242L884.945 41.99C883.923 41.752 883.279 41.094 883.279 40.128C883.279 39.008 884.343 38.098 885.617 38.098C887.353 38.098 887.955 39.204 888.109 39.89L887.115 40.254C887.045 39.806 886.667 39.05 885.617 39.05C884.903 39.05 884.371 39.498 884.371 40.058C884.371 40.52 884.665 40.828 885.253 40.968L886.345 41.22C887.521 41.486 888.165 42.158 888.165 43.166C888.165 44.132 887.339 45.196 885.743 45.196C883.979 45.196 883.181 44.076 883.069 43.236L884.077 42.886ZM893.488 39.442C893.306 39.386 893.11 39.372 892.9 39.372C891.78 39.372 891.01 40.016 891.01 41.528V45H889.89V38.294H890.982V39.498C891.43 38.518 892.27 38.196 893.012 38.196C893.194 38.196 893.39 38.21 893.488 38.252V39.442ZM897.56 38.098C899.506 38.098 900.92 39.582 900.92 41.64C900.92 43.712 899.506 45.196 897.56 45.196C895.614 45.196 894.2 43.712 894.2 41.64C894.2 39.582 895.614 38.098 897.56 38.098ZM897.56 39.106C896.37 39.106 895.32 40.016 895.32 41.64C895.32 43.278 896.37 44.188 897.56 44.188C898.75 44.188 899.8 43.278 899.8 41.64C899.8 40.016 898.75 39.106 897.56 39.106ZM905.544 38.098C907.49 38.098 908.904 39.582 908.904 41.64C908.904 43.712 907.49 45.196 905.544 45.196C903.598 45.196 902.184 43.712 902.184 41.64C902.184 39.582 903.598 38.098 905.544 38.098ZM905.544 39.106C904.354 39.106 903.304 40.016 903.304 41.64C903.304 43.278 904.354 44.188 905.544 44.188C906.734 44.188 907.784 43.278 907.784 41.64C907.784 40.016 906.734 39.106 905.544 39.106ZM911.723 39.246C912.101 38.532 912.899 38.098 913.781 38.098C914.719 38.098 915.503 38.574 915.839 39.47C916.329 38.518 917.155 38.098 918.107 38.098C919.325 38.098 920.417 38.952 920.417 40.618V45H919.297V40.744C919.297 39.82 918.821 39.106 917.757 39.106C916.763 39.106 916.091 39.918 916.091 40.926V45H914.971V40.744C914.971 39.806 914.481 39.106 913.417 39.106C912.409 39.106 911.751 39.89 911.751 40.94V45H910.631V38.294H911.723V39.246Z" fill="#222222"/>
<path d="M861.509 76L855.881 67.6V76H854.705V66.074H856.245L861.565 74.026V66.074H862.741V76H861.509ZM869.767 71.996C869.725 70.932 869.067 70.092 867.779 70.092C866.603 70.092 865.833 71.002 865.763 71.996H869.767ZM870.887 74.096C870.509 75.258 869.459 76.196 867.905 76.196C866.113 76.196 864.587 74.88 864.587 72.626C864.587 70.498 866.071 69.098 867.765 69.098C869.795 69.098 870.929 70.498 870.929 72.556C870.929 72.71 870.915 72.85 870.901 72.948H865.735V73.004C865.735 74.278 866.701 75.188 867.905 75.188C869.039 75.188 869.655 74.544 869.921 73.746L870.887 74.096ZM877.611 69.294L879.473 74.6L881.069 69.294H882.259L880.075 76H878.899L877.023 70.652L875.175 76H873.985L871.759 69.294H872.963L874.601 74.6L876.449 69.294H877.611ZM888.438 70.302V76H887.318V70.302H886.002V69.294H887.318V68.048C887.318 66.578 888.242 65.808 889.432 65.808C889.838 65.808 890.104 65.892 890.202 65.948V66.914C890.104 66.872 889.922 66.816 889.6 66.816C889.054 66.816 888.438 67.124 888.438 68.076V69.294H890.174V70.302H888.438ZM896.099 71.996C896.057 70.932 895.399 70.092 894.111 70.092C892.935 70.092 892.165 71.002 892.095 71.996H896.099ZM897.219 74.096C896.841 75.258 895.791 76.196 894.237 76.196C892.445 76.196 890.919 74.88 890.919 72.626C890.919 70.498 892.403 69.098 894.097 69.098C896.127 69.098 897.261 70.498 897.261 72.556C897.261 72.71 897.247 72.85 897.233 72.948H892.067V73.004C892.067 74.278 893.033 75.188 894.237 75.188C895.371 75.188 895.987 74.544 896.253 73.746L897.219 74.096ZM898.479 74.222C898.479 73.046 899.305 72.388 900.481 72.22L902.287 71.954C902.777 71.884 902.889 71.674 902.889 71.38C902.889 70.61 902.399 70.05 901.335 70.05C900.341 70.05 899.767 70.638 899.669 71.492L898.605 71.24C898.759 69.966 899.851 69.098 901.307 69.098C903.211 69.098 904.009 70.19 904.009 71.492V74.88C904.009 75.44 904.051 75.79 904.093 76H903.001C902.959 75.846 902.917 75.51 902.917 74.992C902.623 75.538 901.895 76.196 900.691 76.196C899.305 76.196 898.479 75.23 898.479 74.222ZM900.831 75.244C901.993 75.244 902.889 74.586 902.889 73.172V72.724L900.705 73.046C900.047 73.144 899.599 73.508 899.599 74.166C899.599 74.712 900.061 75.244 900.831 75.244ZM907.688 69.294H909.27V70.302H907.688V74.012C907.688 74.726 907.996 75.062 908.71 75.062C908.92 75.062 909.158 75.034 909.27 74.992V75.944C909.144 75.986 908.822 76.07 908.388 76.07C907.268 76.07 906.568 75.398 906.568 74.166V70.302H905.224V69.294H905.658C906.344 69.294 906.638 68.902 906.638 68.272V67.166H907.688V69.294ZM915.26 75.09C914.938 75.776 914.14 76.196 913.244 76.196C911.62 76.196 910.724 75.006 910.724 73.508V69.294H911.844V73.326C911.844 74.292 912.306 75.188 913.496 75.188C914.616 75.188 915.204 74.404 915.204 73.34V69.294H916.324V74.74C916.324 75.258 916.366 75.734 916.408 76H915.33C915.288 75.846 915.26 75.482 915.26 75.146V75.09ZM922.104 70.442C921.922 70.386 921.726 70.372 921.516 70.372C920.396 70.372 919.626 71.016 919.626 72.528V76H918.506V69.294H919.598V70.498C920.046 69.518 920.886 69.196 921.628 69.196C921.81 69.196 922.006 69.21 922.104 69.252V70.442ZM927.995 71.996C927.953 70.932 927.295 70.092 926.007 70.092C924.831 70.092 924.061 71.002 923.991 71.996H927.995ZM929.115 74.096C928.737 75.258 927.687 76.196 926.133 76.196C924.341 76.196 922.815 74.88 922.815 72.626C922.815 70.498 924.299 69.098 925.993 69.098C928.023 69.098 929.157 70.498 929.157 72.556C929.157 72.71 929.143 72.85 929.129 72.948H923.963V73.004C923.963 74.278 924.929 75.188 926.133 75.188C927.267 75.188 927.883 74.544 928.149 73.746L929.115 74.096ZM931.313 73.886C931.411 74.67 931.985 75.244 932.993 75.244C933.791 75.244 934.295 74.796 934.295 74.222C934.295 73.718 933.889 73.396 933.273 73.242L932.181 72.99C931.159 72.752 930.515 72.094 930.515 71.128C930.515 70.008 931.579 69.098 932.853 69.098C934.589 69.098 935.191 70.204 935.345 70.89L934.351 71.254C934.281 70.806 933.903 70.05 932.853 70.05C932.139 70.05 931.607 70.498 931.607 71.058C931.607 71.52 931.901 71.828 932.489 71.968L933.581 72.22C934.757 72.486 935.401 73.158 935.401 74.166C935.401 75.132 934.575 76.196 932.979 76.196C931.215 76.196 930.417 75.076 930.305 74.236L931.313 73.886Z" fill="#222222"/>
<path d="M858.919 107.196C856.399 107.196 854.033 105.334 854.033 102.03C854.033 98.712 856.469 96.878 858.919 96.878C861.159 96.878 862.769 98.124 863.259 100.028L862.167 100.406C861.789 98.838 860.613 97.956 858.919 97.956C857.029 97.956 855.209 99.342 855.209 102.03C855.209 104.732 857.029 106.118 858.919 106.118C860.683 106.118 861.831 105.04 862.237 103.626L863.273 104.004C862.755 105.866 861.201 107.196 858.919 107.196ZM864.395 105.222C864.395 104.046 865.221 103.388 866.397 103.22L868.203 102.954C868.693 102.884 868.805 102.674 868.805 102.38C868.805 101.61 868.315 101.05 867.251 101.05C866.257 101.05 865.683 101.638 865.585 102.492L864.521 102.24C864.675 100.966 865.767 100.098 867.223 100.098C869.127 100.098 869.925 101.19 869.925 102.492V105.88C869.925 106.44 869.967 106.79 870.009 107H868.917C868.875 106.846 868.833 106.51 868.833 105.992C868.539 106.538 867.811 107.196 866.607 107.196C865.221 107.196 864.395 106.23 864.395 105.222ZM866.747 106.244C867.909 106.244 868.805 105.586 868.805 104.172V103.724L866.621 104.046C865.963 104.144 865.515 104.508 865.515 105.166C865.515 105.712 865.977 106.244 866.747 106.244ZM875.633 101.442C875.451 101.386 875.255 101.372 875.045 101.372C873.925 101.372 873.155 102.016 873.155 103.528V107H872.035V100.294H873.127V101.498C873.575 100.518 874.415 100.196 875.157 100.196C875.339 100.196 875.535 100.21 875.633 100.252V101.442ZM881.524 102.996C881.482 101.932 880.824 101.092 879.536 101.092C878.36 101.092 877.59 102.002 877.52 102.996H881.524ZM882.644 105.096C882.266 106.258 881.216 107.196 879.662 107.196C877.87 107.196 876.344 105.88 876.344 103.626C876.344 101.498 877.828 100.098 879.522 100.098C881.552 100.098 882.686 101.498 882.686 103.556C882.686 103.71 882.672 103.85 882.658 103.948H877.492V104.004C877.492 105.278 878.458 106.188 879.662 106.188C880.796 106.188 881.412 105.544 881.678 104.746L882.644 105.096ZM889.099 102.996C889.057 101.932 888.399 101.092 887.111 101.092C885.935 101.092 885.165 102.002 885.095 102.996H889.099ZM890.219 105.096C889.841 106.258 888.791 107.196 887.237 107.196C885.445 107.196 883.919 105.88 883.919 103.626C883.919 101.498 885.403 100.098 887.097 100.098C889.127 100.098 890.261 101.498 890.261 103.556C890.261 103.71 890.247 103.85 890.233 103.948H885.067V104.004C885.067 105.278 886.033 106.188 887.237 106.188C888.371 106.188 888.987 105.544 889.253 104.746L890.219 105.096ZM895.553 101.442C895.371 101.386 895.175 101.372 894.965 101.372C893.845 101.372 893.075 102.016 893.075 103.528V107H891.955V100.294H893.047V101.498C893.495 100.518 894.335 100.196 895.077 100.196C895.259 100.196 895.455 100.21 895.553 100.252V101.442ZM897.339 104.886C897.437 105.67 898.011 106.244 899.019 106.244C899.817 106.244 900.321 105.796 900.321 105.222C900.321 104.718 899.915 104.396 899.299 104.242L898.207 103.99C897.185 103.752 896.541 103.094 896.541 102.128C896.541 101.008 897.605 100.098 898.879 100.098C900.615 100.098 901.217 101.204 901.371 101.89L900.377 102.254C900.307 101.806 899.929 101.05 898.879 101.05C898.165 101.05 897.633 101.498 897.633 102.058C897.633 102.52 897.927 102.828 898.515 102.968L899.607 103.22C900.783 103.486 901.427 104.158 901.427 105.166C901.427 106.132 900.601 107.196 899.005 107.196C897.241 107.196 896.443 106.076 896.331 105.236L897.339 104.886Z" fill="#222222"/>
<path d="M854.705 138V128.074H855.881V138H854.705ZM859.469 138H858.349V131.294H859.441V132.302C859.875 131.518 860.645 131.098 861.541 131.098C863.151 131.098 863.935 132.246 863.935 133.702V138H862.815V133.87C862.815 132.904 862.367 132.106 861.149 132.106C860.071 132.106 859.469 132.988 859.469 134.052V138ZM868.963 138H867.829L865.127 131.294H866.387L868.403 136.698L870.433 131.294H871.637L868.963 138ZM877.56 133.996C877.518 132.932 876.86 132.092 875.572 132.092C874.396 132.092 873.626 133.002 873.556 133.996H877.56ZM878.68 136.096C878.302 137.258 877.252 138.196 875.698 138.196C873.906 138.196 872.38 136.88 872.38 134.626C872.38 132.498 873.864 131.098 875.558 131.098C877.588 131.098 878.722 132.498 878.722 134.556C878.722 134.71 878.708 134.85 878.694 134.948H873.528V135.004C873.528 136.278 874.494 137.188 875.698 137.188C876.832 137.188 877.448 136.544 877.714 135.746L878.68 136.096ZM880.878 135.886C880.976 136.67 881.55 137.244 882.558 137.244C883.356 137.244 883.86 136.796 883.86 136.222C883.86 135.718 883.454 135.396 882.838 135.242L881.746 134.99C880.724 134.752 880.08 134.094 880.08 133.128C880.08 132.008 881.144 131.098 882.418 131.098C884.154 131.098 884.756 132.204 884.91 132.89L883.916 133.254C883.846 132.806 883.468 132.05 882.418 132.05C881.704 132.05 881.172 132.498 881.172 133.058C881.172 133.52 881.466 133.828 882.054 133.968L883.146 134.22C884.322 134.486 884.966 135.158 884.966 136.166C884.966 137.132 884.14 138.196 882.544 138.196C880.78 138.196 879.982 137.076 879.87 136.236L880.878 135.886ZM888.315 131.294H889.897V132.302H888.315V136.012C888.315 136.726 888.623 137.062 889.337 137.062C889.547 137.062 889.785 137.034 889.897 136.992V137.944C889.771 137.986 889.449 138.07 889.015 138.07C887.895 138.07 887.195 137.398 887.195 136.166V132.302H885.851V131.294H886.285C886.971 131.294 887.265 130.902 887.265 130.272V129.166H888.315V131.294ZM894.333 131.098C896.279 131.098 897.693 132.582 897.693 134.64C897.693 136.712 896.279 138.196 894.333 138.196C892.387 138.196 890.973 136.712 890.973 134.64C890.973 132.582 892.387 131.098 894.333 131.098ZM894.333 132.106C893.143 132.106 892.093 133.016 892.093 134.64C892.093 136.278 893.143 137.188 894.333 137.188C895.523 137.188 896.573 136.278 896.573 134.64C896.573 133.016 895.523 132.106 894.333 132.106ZM903.018 132.442C902.836 132.386 902.64 132.372 902.43 132.372C901.31 132.372 900.54 133.016 900.54 134.528V138H899.42V131.294H900.512V132.498C900.96 131.518 901.8 131.196 902.542 131.196C902.724 131.196 902.92 131.21 903.018 131.252V132.442ZM904.804 135.886C904.902 136.67 905.476 137.244 906.484 137.244C907.282 137.244 907.786 136.796 907.786 136.222C907.786 135.718 907.38 135.396 906.764 135.242L905.672 134.99C904.65 134.752 904.006 134.094 904.006 133.128C904.006 132.008 905.07 131.098 906.344 131.098C908.08 131.098 908.682 132.204 908.836 132.89L907.842 133.254C907.772 132.806 907.394 132.05 906.344 132.05C905.63 132.05 905.098 132.498 905.098 133.058C905.098 133.52 905.392 133.828 905.98 133.968L907.072 134.22C908.248 134.486 908.892 135.158 908.892 136.166C908.892 137.132 908.066 138.196 906.47 138.196C904.706 138.196 903.908 137.076 903.796 136.236L904.804 135.886Z" fill="#222222"/>
<path d="M862.265 169L862.153 167.39C861.747 168.216 860.655 169.196 858.793 169.196C856.371 169.196 854.047 167.39 854.047 164.03C854.047 160.684 856.469 158.878 858.905 158.878C861.033 158.878 862.713 160.082 863.273 161.86L862.209 162.322C861.747 160.824 860.543 159.956 858.905 159.956C857.043 159.956 855.223 161.3 855.223 164.03C855.223 166.774 857.001 168.118 858.835 168.118C861.201 168.118 862.041 166.396 862.083 165.276H858.541V164.198H863.217V169H862.265ZM865.158 169V162.294H866.278V169H865.158ZM864.878 159.648C864.878 159.186 865.256 158.808 865.718 158.808C866.18 158.808 866.558 159.186 866.558 159.648C866.558 160.11 866.18 160.488 865.718 160.488C865.256 160.488 864.878 160.11 864.878 159.648ZM870.091 163.302V169H868.971V163.302H867.655V162.294H868.971V161.048C868.971 159.578 869.895 158.808 871.085 158.808C871.491 158.808 871.757 158.892 871.855 158.948V159.914C871.757 159.872 871.575 159.816 871.253 159.816C870.707 159.816 870.091 160.124 870.091 161.076V162.294H871.827V163.302H870.091ZM874.821 162.294H876.403V163.302H874.821V167.012C874.821 167.726 875.129 168.062 875.843 168.062C876.053 168.062 876.291 168.034 876.403 167.992V168.944C876.277 168.986 875.955 169.07 875.521 169.07C874.401 169.07 873.701 168.398 873.701 167.166V163.302H872.357V162.294H872.791C873.477 162.294 873.771 161.902 873.771 161.272V160.166H874.821V162.294ZM884.365 163.106C883.189 163.106 882.167 164.016 882.167 165.64C882.167 167.25 883.189 168.188 884.379 168.188C885.625 168.188 886.199 167.292 886.381 166.676L887.361 167.11C887.025 168.104 886.101 169.196 884.379 169.196C882.447 169.196 881.047 167.698 881.047 165.64C881.047 163.554 882.475 162.098 884.365 162.098C886.115 162.098 886.997 163.148 887.305 164.212L886.297 164.646C886.115 163.932 885.569 163.106 884.365 163.106ZM888.485 167.222C888.485 166.046 889.311 165.388 890.487 165.22L892.293 164.954C892.783 164.884 892.895 164.674 892.895 164.38C892.895 163.61 892.405 163.05 891.341 163.05C890.347 163.05 889.773 163.638 889.675 164.492L888.611 164.24C888.765 162.966 889.857 162.098 891.313 162.098C893.217 162.098 894.015 163.19 894.015 164.492V167.88C894.015 168.44 894.057 168.79 894.099 169H893.007C892.965 168.846 892.923 168.51 892.923 167.992C892.629 168.538 891.901 169.196 890.697 169.196C889.311 169.196 888.485 168.23 888.485 167.222ZM890.837 168.244C891.999 168.244 892.895 167.586 892.895 166.172V165.724L890.711 166.046C890.053 166.144 889.605 166.508 889.605 167.166C889.605 167.712 890.067 168.244 890.837 168.244ZM899.723 163.442C899.541 163.386 899.345 163.372 899.135 163.372C898.015 163.372 897.245 164.016 897.245 165.528V169H896.125V162.294H897.217V163.498C897.665 162.518 898.505 162.196 899.247 162.196C899.429 162.196 899.625 162.21 899.723 162.252V163.442ZM905.768 167.852C905.474 168.51 904.718 169.196 903.57 169.196C901.638 169.196 900.462 167.628 900.462 165.64C900.462 163.694 901.708 162.098 903.57 162.098C904.858 162.098 905.516 162.812 905.74 163.372V158.878H906.86V167.74C906.86 168.412 906.888 168.846 906.93 169H905.838C905.796 168.846 905.768 168.468 905.768 168.034V167.852ZM903.668 168.188C904.928 168.188 905.768 167.138 905.768 165.64C905.768 164.156 904.956 163.106 903.668 163.106C902.394 163.106 901.582 164.156 901.582 165.64C901.582 167.138 902.394 168.188 903.668 168.188ZM909.507 166.886C909.605 167.67 910.179 168.244 911.187 168.244C911.985 168.244 912.489 167.796 912.489 167.222C912.489 166.718 912.083 166.396 911.467 166.242L910.375 165.99C909.353 165.752 908.709 165.094 908.709 164.128C908.709 163.008 909.773 162.098 911.047 162.098C912.783 162.098 913.385 163.204 913.539 163.89L912.545 164.254C912.475 163.806 912.097 163.05 911.047 163.05C910.333 163.05 909.801 163.498 909.801 164.058C909.801 164.52 910.095 164.828 910.683 164.968L911.775 165.22C912.951 165.486 913.595 166.158 913.595 167.166C913.595 168.132 912.769 169.196 911.173 169.196C909.409 169.196 908.611 168.076 908.499 167.236L909.507 166.886Z" fill="#222222"/>
<path d="M860.543 197.102H855.993L854.887 200H853.613L857.589 190.074H858.961L862.951 200H861.677L860.543 197.102ZM856.413 196.024H860.123L858.261 191.278L856.413 196.024ZM864.31 200V193.294H865.43V200H864.31ZM864.03 190.648C864.03 190.186 864.408 189.808 864.87 189.808C865.332 189.808 865.71 190.186 865.71 190.648C865.71 191.11 865.332 191.488 864.87 191.488C864.408 191.488 864.03 191.11 864.03 190.648ZM871.217 194.442C871.035 194.386 870.839 194.372 870.629 194.372C869.509 194.372 868.739 195.016 868.739 196.528V200H867.619V193.294H868.711V194.498C869.159 193.518 869.999 193.196 870.741 193.196C870.923 193.196 871.119 193.21 871.217 193.252V194.442ZM872.541 200V189.878H873.661V194.386C873.955 193.756 874.767 193.098 875.957 193.098C877.945 193.098 879.009 194.68 879.009 196.64C879.009 198.642 877.875 200.196 875.929 200.196C874.809 200.196 874.025 199.622 873.633 198.894V200H872.541ZM875.761 199.188C877.049 199.188 877.889 198.138 877.889 196.64C877.889 195.156 877.063 194.106 875.761 194.106C874.459 194.106 873.633 195.156 873.633 196.64C873.633 198.138 874.473 199.188 875.761 199.188ZM881.864 200H880.744V193.294H881.836V194.302C882.27 193.518 883.04 193.098 883.936 193.098C885.546 193.098 886.33 194.246 886.33 195.702V200H885.21V195.87C885.21 194.904 884.762 194.106 883.544 194.106C882.466 194.106 881.864 194.988 881.864 196.052V200ZM888.427 200V189.878H889.547V194.386C889.841 193.756 890.653 193.098 891.843 193.098C893.831 193.098 894.895 194.68 894.895 196.64C894.895 198.642 893.761 200.196 891.815 200.196C890.695 200.196 889.911 199.622 889.519 198.894V200H888.427ZM891.647 199.188C892.935 199.188 893.775 198.138 893.775 196.64C893.775 195.156 892.949 194.106 891.647 194.106C890.345 194.106 889.519 195.156 889.519 196.64C889.519 198.138 890.359 199.188 891.647 199.188ZM896.228 199.202C896.228 198.712 896.606 198.334 897.096 198.334C897.586 198.334 897.964 198.712 897.964 199.202C897.964 199.692 897.586 200.07 897.096 200.07C896.606 200.07 896.228 199.692 896.228 199.202ZM902.632 193.098C904.578 193.098 905.992 194.582 905.992 196.64C905.992 198.712 904.578 200.196 902.632 200.196C900.686 200.196 899.272 198.712 899.272 196.64C899.272 194.582 900.686 193.098 902.632 193.098ZM902.632 194.106C901.442 194.106 900.392 195.016 900.392 196.64C900.392 198.278 901.442 199.188 902.632 199.188C903.822 199.188 904.872 198.278 904.872 196.64C904.872 195.016 903.822 194.106 902.632 194.106ZM911.316 194.442C911.134 194.386 910.938 194.372 910.728 194.372C909.608 194.372 908.838 195.016 908.838 196.528V200H907.718V193.294H908.81V194.498C909.258 193.518 910.098 193.196 910.84 193.196C911.022 193.196 911.218 193.21 911.316 193.252V194.442ZM913.161 200.112C913.273 201.106 914.001 201.848 915.107 201.848C916.675 201.848 917.249 200.924 917.249 199.538V198.46C916.927 199.118 916.227 199.706 915.121 199.706C913.343 199.706 912.097 198.278 912.097 196.416C912.097 194.54 913.329 193.098 915.149 193.098C916.213 193.098 916.927 193.588 917.263 194.246V193.294H918.369V199.496C918.369 201.134 917.627 202.856 915.107 202.856C913.483 202.856 912.237 201.792 912.083 200.378L913.161 200.112ZM917.305 196.402C917.305 195.002 916.493 194.106 915.261 194.106C914.029 194.106 913.217 195.002 913.217 196.402C913.217 197.802 914.029 198.698 915.261 198.698C916.493 198.698 917.305 197.802 917.305 196.402ZM928.843 195.996C928.801 194.932 928.143 194.092 926.855 194.092C925.679 194.092 924.909 195.002 924.839 195.996H928.843ZM929.963 198.096C929.585 199.258 928.535 200.196 926.981 200.196C925.189 200.196 923.663 198.88 923.663 196.626C923.663 194.498 925.147 193.098 926.841 193.098C928.871 193.098 930.005 194.498 930.005 196.556C930.005 196.71 929.991 196.85 929.977 196.948H924.811V197.004C924.811 198.278 925.777 199.188 926.981 199.188C928.115 199.188 928.731 198.544 928.997 197.746L929.963 198.096ZM932.791 194.246C933.169 193.532 933.967 193.098 934.849 193.098C935.787 193.098 936.571 193.574 936.907 194.47C937.397 193.518 938.223 193.098 939.175 193.098C940.393 193.098 941.485 193.952 941.485 195.618V200H940.365V195.744C940.365 194.82 939.889 194.106 938.825 194.106C937.831 194.106 937.159 194.918 937.159 195.926V200H936.039V195.744C936.039 194.806 935.549 194.106 934.485 194.106C933.477 194.106 932.819 194.89 932.819 195.94V200H931.699V193.294H932.791V194.246ZM948.298 195.996C948.256 194.932 947.598 194.092 946.31 194.092C945.134 194.092 944.364 195.002 944.294 195.996H948.298ZM949.418 198.096C949.04 199.258 947.99 200.196 946.436 200.196C944.644 200.196 943.118 198.88 943.118 196.626C943.118 194.498 944.602 193.098 946.296 193.098C948.326 193.098 949.46 194.498 949.46 196.556C949.46 196.71 949.446 196.85 949.432 196.948H944.266V197.004C944.266 198.278 945.232 199.188 946.436 199.188C947.57 199.188 948.186 198.544 948.452 197.746L949.418 198.096ZM954.752 194.442C954.57 194.386 954.374 194.372 954.164 194.372C953.044 194.372 952.274 195.016 952.274 196.528V200H951.154V193.294H952.246V194.498C952.694 193.518 953.534 193.196 954.276 193.196C954.458 193.196 954.654 193.21 954.752 193.252V194.442ZM956.596 200.112C956.708 201.106 957.436 201.848 958.542 201.848C960.11 201.848 960.684 200.924 960.684 199.538V198.46C960.362 199.118 959.662 199.706 958.556 199.706C956.778 199.706 955.532 198.278 955.532 196.416C955.532 194.54 956.764 193.098 958.584 193.098C959.648 193.098 960.362 193.588 960.698 194.246V193.294H961.804V199.496C961.804 201.134 961.062 202.856 958.542 202.856C956.918 202.856 955.672 201.792 955.518 200.378L956.596 200.112ZM960.74 196.402C960.74 195.002 959.928 194.106 958.696 194.106C957.464 194.106 956.652 195.002 956.652 196.402C956.652 197.802 957.464 198.698 958.696 198.698C959.928 198.698 960.74 197.802 960.74 196.402ZM968.71 195.996C968.668 194.932 968.01 194.092 966.722 194.092C965.546 194.092 964.776 195.002 964.706 195.996H968.71ZM969.83 198.096C969.452 199.258 968.402 200.196 966.848 200.196C965.056 200.196 963.53 198.88 963.53 196.626C963.53 194.498 965.014 193.098 966.708 193.098C968.738 193.098 969.872 194.498 969.872 196.556C969.872 196.71 969.858 196.85 969.844 196.948H964.678V197.004C964.678 198.278 965.644 199.188 966.848 199.188C967.982 199.188 968.598 198.544 968.864 197.746L969.83 198.096ZM972.686 200H971.566V193.294H972.658V194.302C973.092 193.518 973.862 193.098 974.758 193.098C976.368 193.098 977.152 194.246 977.152 195.702V200H976.032V195.87C976.032 194.904 975.584 194.106 974.366 194.106C973.288 194.106 972.686 194.988 972.686 196.052V200ZM982.106 194.106C980.93 194.106 979.908 195.016 979.908 196.64C979.908 198.25 980.93 199.188 982.12 199.188C983.366 199.188 983.94 198.292 984.122 197.676L985.102 198.11C984.766 199.104 983.842 200.196 982.12 200.196C980.188 200.196 978.788 198.698 978.788 196.64C978.788 194.554 980.216 193.098 982.106 193.098C983.856 193.098 984.738 194.148 985.046 195.212L984.038 195.646C983.856 194.932 983.31 194.106 982.106 194.106ZM986.985 202.66L988.609 199.202L985.725 193.294H987.013L989.225 198.04L991.311 193.294H992.529L988.231 202.66H986.985ZM997.526 197.886C997.624 198.67 998.198 199.244 999.206 199.244C1000 199.244 1000.51 198.796 1000.51 198.222C1000.51 197.718 1000.1 197.396 999.486 197.242L998.394 196.99C997.372 196.752 996.728 196.094 996.728 195.128C996.728 194.008 997.792 193.098 999.066 193.098C1000.8 193.098 1001.4 194.204 1001.56 194.89L1000.56 195.254C1000.49 194.806 1000.12 194.05 999.066 194.05C998.352 194.05 997.82 194.498 997.82 195.058C997.82 195.52 998.114 195.828 998.702 195.968L999.794 196.22C1000.97 196.486 1001.61 197.158 1001.61 198.166C1001.61 199.132 1000.79 200.196 999.192 200.196C997.428 200.196 996.63 199.076 996.518 198.236L997.526 197.886ZM1004.96 193.294H1006.55V194.302H1004.96V198.012C1004.96 198.726 1005.27 199.062 1005.99 199.062C1006.2 199.062 1006.43 199.034 1006.55 198.992V199.944C1006.42 199.986 1006.1 200.07 1005.66 200.07C1004.54 200.07 1003.84 199.398 1003.84 198.166V194.302H1002.5V193.294H1002.93C1003.62 193.294 1003.91 192.902 1003.91 192.272V191.166H1004.96V193.294ZM1007.61 198.222C1007.61 197.046 1008.43 196.388 1009.61 196.22L1011.42 195.954C1011.91 195.884 1012.02 195.674 1012.02 195.38C1012.02 194.61 1011.53 194.05 1010.46 194.05C1009.47 194.05 1008.9 194.638 1008.8 195.492L1007.73 195.24C1007.89 193.966 1008.98 193.098 1010.44 193.098C1012.34 193.098 1013.14 194.19 1013.14 195.492V198.88C1013.14 199.44 1013.18 199.79 1013.22 200H1012.13C1012.09 199.846 1012.05 199.51 1012.05 198.992C1011.75 199.538 1011.02 200.196 1009.82 200.196C1008.43 200.196 1007.61 199.23 1007.61 198.222ZM1009.96 199.244C1011.12 199.244 1012.02 198.586 1012.02 197.172V196.724L1009.83 197.046C1009.18 197.144 1008.73 197.508 1008.73 198.166C1008.73 198.712 1009.19 199.244 1009.96 199.244ZM1015.53 202.66L1017.16 199.202L1014.27 193.294H1015.56L1017.77 198.04L1019.86 193.294H1021.08L1016.78 202.66H1015.53ZM1022.7 197.886C1022.79 198.67 1023.37 199.244 1024.38 199.244C1025.17 199.244 1025.68 198.796 1025.68 198.222C1025.68 197.718 1025.27 197.396 1024.66 197.242L1023.56 196.99C1022.54 196.752 1021.9 196.094 1021.9 195.128C1021.9 194.008 1022.96 193.098 1024.24 193.098C1025.97 193.098 1026.57 194.204 1026.73 194.89L1025.73 195.254C1025.66 194.806 1025.29 194.05 1024.24 194.05C1023.52 194.05 1022.99 194.498 1022.99 195.058C1022.99 195.52 1023.28 195.828 1023.87 195.968L1024.96 196.22C1026.14 196.486 1026.78 197.158 1026.78 198.166C1026.78 199.132 1025.96 200.196 1024.36 200.196C1022.6 200.196 1021.8 199.076 1021.69 198.236L1022.7 197.886Z" fill="#222222"/>
</svg>
